<svg width="31" height="35" viewBox="0 0 31 35" fill="none" xmlns="http://www.w3.org/2000/svg">
<mask id="mask0_89_304" style="mask-type:alpha" maskUnits="userSpaceOnUse" x="-6" y="-2" width="43" height="42">
<rect x="-5.16675" y="-1.72225" width="41.3333" height="41.3333" fill="#D9D9D9"/>
</mask>
<g mask="url(#mask0_89_304)">
<path d="M3.44444 34.4444C2.49722 34.4444 1.68634 34.1072 1.01181 33.4326C0.337269 32.7581 0 31.9472 0 31V6.88889C0 5.94167 0.337269 5.13079 1.01181 4.45625C1.68634 3.78171 2.49722 3.44444 3.44444 3.44444H10.6778C11.0509 2.41111 11.6752 1.5787 12.5507 0.947222C13.4262 0.315741 14.4093 0 15.5 0C16.5907 0 17.5738 0.315741 18.4493 0.947222C19.3248 1.5787 19.9491 2.41111 20.3222 3.44444H27.5556C28.5028 3.44444 29.3137 3.78171 29.9882 4.45625C30.6627 5.13079 31 5.94167 31 6.88889V31C31 31.9472 30.6627 32.7581 29.9882 33.4326C29.3137 34.1072 28.5028 34.4444 27.5556 34.4444H3.44444ZM3.44444 31H27.5556V6.88889H3.44444V31ZM8.61111 27.5556H17.2222C17.7102 27.5556 18.1192 27.3905 18.4493 27.0604C18.7794 26.7303 18.9444 26.3213 18.9444 25.8333C18.9444 25.3454 18.7794 24.9363 18.4493 24.6063C18.1192 24.2762 17.7102 24.1111 17.2222 24.1111H8.61111C8.12315 24.1111 7.71412 24.2762 7.38403 24.6063C7.05393 24.9363 6.88889 25.3454 6.88889 25.8333C6.88889 26.3213 7.05393 26.7303 7.38403 27.0604C7.71412 27.3905 8.12315 27.5556 8.61111 27.5556ZM8.61111 20.6667H22.3889C22.8769 20.6667 23.2859 20.5016 23.616 20.1715C23.9461 19.8414 24.1111 19.4324 24.1111 18.9444C24.1111 18.4565 23.9461 18.0475 23.616 17.7174C23.2859 17.3873 22.8769 17.2222 22.3889 17.2222H8.61111C8.12315 17.2222 7.71412 17.3873 7.38403 17.7174C7.05393 18.0475 6.88889 18.4565 6.88889 18.9444C6.88889 19.4324 7.05393 19.8414 7.38403 20.1715C7.71412 20.5016 8.12315 20.6667 8.61111 20.6667ZM8.61111 13.7778H22.3889C22.8769 13.7778 23.2859 13.6127 23.616 13.2826C23.9461 12.9525 24.1111 12.5435 24.1111 12.0556C24.1111 11.5676 23.9461 11.1586 23.616 10.8285C23.2859 10.4984 22.8769 10.3333 22.3889 10.3333H8.61111C8.12315 10.3333 7.71412 10.4984 7.38403 10.8285C7.05393 11.1586 6.88889 11.5676 6.88889 12.0556C6.88889 12.5435 7.05393 12.9525 7.38403 13.2826C7.71412 13.6127 8.12315 13.7778 8.61111 13.7778ZM15.5 5.59722C15.8731 5.59722 16.1817 5.47523 16.4257 5.23125C16.6697 4.98727 16.7917 4.6787 16.7917 4.30556C16.7917 3.93241 16.6697 3.62384 16.4257 3.37986C16.1817 3.13588 15.8731 3.01389 15.5 3.01389C15.1269 3.01389 14.8183 3.13588 14.5743 3.37986C14.3303 3.62384 14.2083 3.93241 14.2083 4.30556C14.2083 4.6787 14.3303 4.98727 14.5743 5.23125C14.8183 5.47523 15.1269 5.59722 15.5 5.59722Z" fill="#161616"/>
</g>
</svg>
