<svg width="35" height="33" viewBox="0 0 35 33" fill="none" xmlns="http://www.w3.org/2000/svg">
<mask id="mask0_89_288" style="mask-type:alpha" maskUnits="userSpaceOnUse" x="-4" y="-4" width="43" height="43">
<rect x="-3.47371" y="-3.47374" width="41.6842" height="41.6842" fill="#D9D9D9"/>
</mask>
<g mask="url(#mask0_89_288)">
<path d="M9.76973 7.6421L14.6329 1.34605C14.9803 0.882894 15.3928 0.542763 15.8704 0.325658C16.348 0.108553 16.8474 0 17.3684 0C17.8895 0 18.3888 0.108553 18.8664 0.325658C19.3441 0.542763 19.7566 0.882894 20.1039 1.34605L24.9671 7.6421L32.3487 10.1171C33.1013 10.3487 33.6947 10.7756 34.1289 11.398C34.5631 12.0204 34.7802 12.7079 34.7802 13.4605C34.7802 13.8079 34.7296 14.1553 34.6283 14.5026C34.5269 14.85 34.3605 15.1829 34.1289 15.5013L29.3526 22.275L29.5263 29.396C29.5552 30.4092 29.2223 31.2631 28.5276 31.9579C27.8329 32.6526 27.0223 33 26.096 33C26.0381 33 25.7197 32.9566 25.1408 32.8697L17.3684 30.6987L9.59605 32.8697C9.45131 32.9276 9.2921 32.9638 9.11841 32.9783C8.94473 32.9927 8.78552 33 8.64078 33C7.71447 33 6.90394 32.6526 6.20921 31.9579C5.51447 31.2631 5.18157 30.4092 5.21052 29.396L5.38421 22.2316L0.651315 15.5013C0.419737 15.1829 0.253289 14.85 0.151974 14.5026C0.0506579 14.1553 0 13.8079 0 13.4605C0 12.7368 0.209868 12.0638 0.629605 11.4414C1.04934 10.8191 1.63553 10.3776 2.38816 10.1171L9.76973 7.6421ZM11.8974 10.6381L3.47368 13.4171L8.85789 21.1895L8.6842 29.4829L17.3684 27.0947L26.0526 29.5263L25.8789 21.1895L31.2631 13.5039L22.8395 10.6381L17.3684 3.47368L11.8974 10.6381Z" fill="#161616"/>
</g>
</svg>
