<svg width="38" height="32" viewBox="0 0 38 32" fill="none" xmlns="http://www.w3.org/2000/svg">
<mask id="mask0_89_296" style="mask-type:alpha" maskUnits="userSpaceOnUse" x="-2" y="-3" width="42" height="43">
<rect x="-1.72724" y="-2.04406" width="41.4546" height="41.4546" fill="#D9D9D9"/>
</mask>
<g mask="url(#mask0_89_296)">
<path d="M19 31.7243C18.6833 31.7243 18.3739 31.6811 18.0716 31.5947C17.7693 31.5083 17.4886 31.3932 17.2296 31.2493C16.0492 30.5296 14.8114 29.9826 13.5159 29.6083C12.2205 29.2341 10.8818 29.047 9.5 29.047C8.29091 29.047 7.10341 29.2053 5.9375 29.522C4.77159 29.8386 3.65606 30.2849 2.59091 30.8606C1.98636 31.1773 1.40341 31.1629 0.842046 30.8174C0.280682 30.472 0 29.9682 0 29.3061V8.49243C0 8.17576 0.0791667 7.87349 0.2375 7.58561C0.395833 7.29773 0.633334 7.08182 0.95 6.93788C2.27424 6.24697 3.65606 5.72879 5.09546 5.38334C6.53485 5.03788 8.00303 4.86515 9.5 4.86515C11.1697 4.86515 12.8034 5.08106 14.4011 5.51288C15.9989 5.9447 17.5318 6.59243 19 7.45606V28.3561C20.4682 27.4349 22.0083 26.744 23.6205 26.2833C25.2326 25.8227 26.8591 25.5924 28.5 25.5924C29.5364 25.5924 30.5511 25.6788 31.5443 25.8515C32.5375 26.0243 33.5379 26.2833 34.5455 26.6288V5.90152C34.9773 6.04546 35.4019 6.19659 35.8193 6.35493C36.2368 6.51326 36.647 6.70758 37.05 6.93788C37.3667 7.08182 37.6042 7.29773 37.7625 7.58561C37.9208 7.87349 38 8.17576 38 8.49243V29.3061C38 29.9682 37.7193 30.472 37.158 30.8174C36.5966 31.1629 36.0136 31.1773 35.4091 30.8606C34.344 30.2849 33.2284 29.8386 32.0625 29.522C30.8966 29.2053 29.7091 29.047 28.5 29.047C27.1182 29.047 25.7796 29.2341 24.4841 29.6083C23.1886 29.9826 21.9508 30.5296 20.7705 31.2493C20.5114 31.3932 20.2307 31.5083 19.9284 31.5947C19.6261 31.6811 19.3167 31.7243 19 31.7243ZM23.8796 22.5697C23.5917 22.8288 23.2822 22.8792 22.9511 22.7208C22.6201 22.5625 22.4546 22.2962 22.4546 21.922V7.80152C22.4546 7.68637 22.4761 7.57841 22.5193 7.47765C22.5625 7.3769 22.6273 7.28334 22.7136 7.19697L29.6227 0.287879C29.9106 0 30.2273 -0.0719697 30.5727 0.0719697C30.9182 0.215909 31.0909 0.489394 31.0909 0.892425V15.7038C31.0909 15.8477 31.0621 15.9701 31.0046 16.0708C30.947 16.1716 30.875 16.2652 30.7886 16.3515L23.8796 22.5697ZM15.5455 26.672V9.57197C14.5955 9.16894 13.6095 8.85947 12.5875 8.64356C11.5655 8.42766 10.5364 8.3197 9.5 8.3197C8.43485 8.3197 7.39849 8.42046 6.39091 8.62197C5.38334 8.82349 4.40455 9.12576 3.45455 9.52879V26.672C4.46212 26.2977 5.4625 26.0243 6.45568 25.8515C7.44887 25.6788 8.46364 25.5924 9.5 25.5924C10.5364 25.5924 11.5511 25.6788 12.5443 25.8515C13.5375 26.0243 14.5379 26.2977 15.5455 26.672Z" fill="#161616"/>
</g>
</svg>
