<svg width="58" height="58" viewBox="0 0 58 58" fill="none" xmlns="http://www.w3.org/2000/svg">
<mask id="mask0_89_280" style="mask-type:alpha" maskUnits="userSpaceOnUse" x="-6" y="-7" width="71" height="71">
<rect x="-5.93158" y="-6.51746" width="70.3002" height="70.3002" fill="#D9D9D9"/>
</mask>
<g mask="url(#mask0_89_280)">
<path d="M32.2209 3.0024C32.2209 2.02601 32.5871 1.2449 33.3194 0.659064C34.0517 0.0732294 34.8816 -0.122049 35.8092 0.0732294C41.4234 1.34254 46.2199 3.991 50.1987 8.01862C54.1775 12.0462 56.7528 16.8672 57.9244 22.4814C58.1197 23.3114 57.9366 24.0559 57.3752 24.7149C56.8138 25.374 56.0449 25.7035 55.0685 25.7035H38.1525C37.9572 25.7035 37.7864 25.6547 37.6399 25.5571C37.4934 25.4594 37.3714 25.313 37.2738 25.1177C36.8344 24.0925 36.2241 23.1771 35.443 22.3716C34.6619 21.5661 33.7832 20.9436 32.8068 20.5042C32.6115 20.4066 32.465 20.2967 32.3674 20.1747C32.2697 20.0526 32.2209 19.894 32.2209 19.6987V3.0024ZM22.5546 57.1189C16.0128 55.6055 10.6183 52.2125 6.37096 46.94C2.12365 41.6675 0 35.5651 0 28.6327C0 21.7003 2.12365 15.6101 6.37096 10.362C10.6183 5.11385 16.0128 1.70869 22.5546 0.146459C23.531 -0.0976392 24.4098 0.109844 25.1909 0.768909C25.972 1.42797 26.3626 2.27011 26.3626 3.29532V19.8452C26.3626 19.894 26.2161 20.0893 25.9232 20.431C24.2633 21.1145 22.9452 22.2007 21.9688 23.6897C20.9924 25.1787 20.5042 26.8264 20.5042 28.6327C20.5042 30.439 20.9924 32.0623 21.9688 33.5024C22.9452 34.9426 24.2633 36.0044 25.9232 36.6879C26.0208 36.7367 26.1673 36.932 26.3626 37.2738V53.9701C26.3626 54.9953 25.972 55.8374 25.1909 56.4965C24.4098 57.1555 23.531 57.363 22.5546 57.1189ZM35.443 57.2654C34.6131 57.4607 33.8686 57.2776 33.2095 56.7162C32.5505 56.1547 32.2209 55.4346 32.2209 54.5559V37.4934C32.2209 37.2982 32.2697 37.1273 32.3674 36.9808C32.465 36.8344 32.6115 36.7123 32.8068 36.6147C33.7832 36.1753 34.6619 35.5651 35.443 34.784C36.2241 34.0028 36.8344 33.1241 37.2738 32.1477C37.3226 32.0501 37.5911 31.8548 38.0793 31.5619H55.0685C55.9472 31.5619 56.6795 31.928 57.2654 32.6603C57.8512 33.3926 58.0465 34.2225 57.8512 35.1501C56.6307 40.7644 53.9945 45.5609 49.9424 49.5397C45.8904 53.5185 41.0573 56.0937 35.443 57.2654Z" fill="#161616"/>
</g>
</svg>
