<svg width="44" height="50" viewBox="0 0 44 50" fill="none" xmlns="http://www.w3.org/2000/svg">
<mask id="mask0_89_556" style="mask-type:alpha" maskUnits="userSpaceOnUse" x="-15" y="-12" width="71" height="71">
<rect x="-14.6667" y="-11.7333" width="70.4" height="70.4" fill="#D9D9D9"/>
</mask>
<g mask="url(#mask0_89_556)">
<path d="M5.86667 29.3333V46.9333C5.86667 47.7644 5.58556 48.4611 5.02333 49.0233C4.46111 49.5856 3.76444 49.8667 2.93333 49.8667C2.10222 49.8667 1.40556 49.5856 0.843333 49.0233C0.281111 48.4611 0 47.7644 0 46.9333V2.93333C0 2.10222 0.281111 1.40556 0.843333 0.843333C1.40556 0.281111 2.10222 0 2.93333 0H23.98C24.6644 0 25.2756 0.22 25.8133 0.66C26.3511 1.1 26.6933 1.66222 26.84 2.34667L27.5733 5.86667H41.0667C41.8978 5.86667 42.5944 6.14778 43.1567 6.71C43.7189 7.27222 44 7.96889 44 8.8V32.2667C44 33.0978 43.7189 33.7944 43.1567 34.3567C42.5944 34.9189 41.8978 35.2 41.0667 35.2H25.8867C25.2022 35.2 24.5911 34.98 24.0533 34.54C23.5156 34.1 23.1733 33.5378 23.0267 32.8533L22.2933 29.3333H5.86667Z" fill="#161616"/>
</g>
</svg>
