<svg width="14" height="14" viewBox="0 0 14 14" fill="none" xmlns="http://www.w3.org/2000/svg">
<mask id="mask0_1_184" style="mask-type:alpha" maskUnits="userSpaceOnUse" x="-1" y="-1" width="16" height="16">
<rect x="-1" y="-1" width="16" height="16" fill="#D9D9D9"/>
</mask>
<g mask="url(#mask0_1_184)">
<path d="M3.70517 9.4935H8.0385C8.4585 9.4935 8.8135 9.34594 9.1035 9.05083C9.3935 8.75572 9.5385 8.39806 9.5385 7.97783C9.5385 7.55761 9.38889 7.20239 9.08967 6.91217C8.79056 6.62206 8.42906 6.477 8.00517 6.477H7.91533V6.4385C7.86067 5.88039 7.622 5.41672 7.19933 5.0475C6.77667 4.67828 6.27861 4.49367 5.70517 4.49367C5.28172 4.49367 4.89444 4.60733 4.54333 4.83467C4.19222 5.062 3.92861 5.36628 3.7525 5.7475L3.70767 5.83717L3.6115 5.84367C3.12094 5.86589 2.70833 6.05156 2.37367 6.40067C2.03911 6.74978 1.87183 7.16906 1.87183 7.6585C1.87183 8.16817 2.05006 8.60144 2.4065 8.95833C2.76294 9.31511 3.19583 9.4935 3.70517 9.4935ZM3.70517 8.49367C3.4735 8.49367 3.27667 8.41267 3.11467 8.25067C2.95278 8.08867 2.87183 7.89189 2.87183 7.66033C2.87183 7.42867 2.95278 7.23183 3.11467 7.06983C3.27667 6.90783 3.4735 6.82683 3.70517 6.82683H4.37817V6.72433C4.40383 6.37644 4.54444 6.08433 4.8 5.848C5.05556 5.61167 5.35728 5.4935 5.70517 5.4935C6.07339 5.4935 6.38767 5.62367 6.648 5.884C6.90833 6.14433 7.0385 6.45867 7.0385 6.827V7.4935H8.0385C8.17439 7.4935 8.29167 7.54289 8.39033 7.64167C8.48911 7.74033 8.5385 7.85767 8.5385 7.99367C8.5385 8.12956 8.48911 8.24683 8.39033 8.3455C8.29167 8.44428 8.17439 8.49367 8.0385 8.49367H3.70517ZM4.41033 14C4.26867 14 4.14989 13.9521 4.054 13.8562C3.95822 13.7603 3.91033 13.6415 3.91033 13.4998C3.91033 13.3581 3.95822 13.2393 4.054 13.1437C4.14989 13.0479 4.26867 13 4.41033 13H4.88467V11.3973H1.20517C0.868389 11.3973 0.583333 11.2807 0.35 11.0475C0.116667 10.8142 0 10.5291 0 10.1923V3.79483C0 3.45817 0.116667 3.17317 0.35 2.93983C0.583333 2.7065 0.868389 2.58983 1.20517 2.58983H10.2052C10.5418 2.58983 10.8268 2.7065 11.0602 2.93983C11.2935 3.17317 11.4102 3.45817 11.4102 3.79483V10.1923C11.4102 10.5291 11.2935 10.8142 11.0602 11.0475C10.8268 11.2807 10.5418 11.3973 10.2052 11.3973H6.52567V13H7C7.14167 13 7.26039 13.0479 7.35617 13.1438C7.45206 13.2397 7.5 13.3585 7.5 13.5002C7.5 13.6419 7.45206 13.7607 7.35617 13.8563C7.26039 13.9521 7.14167 14 7 14H4.41033ZM13 7.6475V1.20517C13 1.14528 12.9808 1.09611 12.9423 1.05767C12.9039 1.01922 12.8547 1 12.7948 1H3.1025C2.96083 1 2.84211 0.952056 2.74633 0.856167C2.65056 0.760278 2.60267 0.6415 2.60267 0.499833C2.60267 0.358055 2.65056 0.239333 2.74633 0.143667C2.84211 0.0478888 2.96083 0 3.1025 0H12.7948C13.1316 0 13.4167 0.116667 13.65 0.35C13.8833 0.583333 14 0.868389 14 1.20517V7.6475C14 7.78917 13.9521 7.90789 13.8562 8.00367C13.7603 8.09956 13.6415 8.1475 13.4998 8.1475C13.3581 8.1475 13.2393 8.09956 13.1437 8.00367C13.0479 7.90789 13 7.78917 13 7.6475ZM1.20517 10.4038H10.2052C10.2649 10.4038 10.3141 10.3846 10.3525 10.3462C10.3911 10.3077 10.4103 10.2586 10.4103 10.1987V3.7885C10.4103 3.72861 10.3911 3.67945 10.3525 3.641C10.3141 3.60256 10.2649 3.58333 10.2052 3.58333H1.20517C1.14528 3.58333 1.09611 3.60256 1.05767 3.641C1.01922 3.67945 1 3.72861 1 3.7885V10.1987C1 10.2586 1.01922 10.3077 1.05767 10.3462C1.09611 10.3846 1.14528 10.4038 1.20517 10.4038Z" fill="#F5F5F5" fill-opacity="0.56"/>
</g>
</svg>
