<svg width="10" height="10" viewBox="0 0 10 10" fill="none" xmlns="http://www.w3.org/2000/svg">
<mask id="mask0_1_149" style="mask-type:alpha" maskUnits="userSpaceOnUse" x="-4" y="-4" width="18" height="18">
<rect x="-3.07735" y="-3.2837" width="16.4125" height="16.4125" fill="#D9D9D9"/>
</mask>
<g mask="url(#mask0_1_149)">
<path d="M8.29311 5.43545H0.512891C0.367344 5.43545 0.245504 5.38633 0.147371 5.28808C0.0491235 5.18995 0 5.06811 0 4.92256C0 4.77701 0.0491235 4.65517 0.147371 4.55704C0.245504 4.45879 0.367344 4.40967 0.512891 4.40967H8.29311L4.75809 0.87465C4.65643 0.772983 4.60622 0.653992 4.60747 0.517677C4.60884 0.381362 4.66252 0.26015 4.76852 0.154038C4.87463 0.0549932 4.99476 0.00370404 5.12891 0.000170786C5.26306 -0.00336246 5.38319 0.0479267 5.4893 0.154038L9.82511 4.48985C9.88917 4.5539 9.9343 4.62143 9.96052 4.69244C9.98685 4.76345 10 4.84015 10 4.92256C10 5.00496 9.98685 5.08167 9.96052 5.15267C9.9343 5.22368 9.88917 5.29121 9.82511 5.35527L5.4893 9.69108C5.39459 9.78579 5.27731 9.83423 5.13746 9.8364C4.99761 9.83856 4.87463 9.79012 4.76852 9.69108C4.66252 9.58497 4.60952 9.46313 4.60952 9.32556C4.60952 9.18788 4.66252 9.06598 4.76852 8.95987L8.29311 5.43545Z" fill="#F5F5F5" fill-opacity="0.56"/>
</g>
</svg>
