<svg width="11" height="11" viewBox="0 0 11 11" fill="none" xmlns="http://www.w3.org/2000/svg">
<mask id="mask0_1_226" style="mask-type:alpha" maskUnits="userSpaceOnUse" x="-5" y="-5" width="21" height="21">
<rect x="-4.90313" y="-4.90313" width="20.8062" height="20.8062" fill="#D9D9D9"/>
</mask>
<g mask="url(#mask0_1_226)">
<path d="M5.49999 6.41352L1.10208 10.8117C0.98201 10.9316 0.831093 10.993 0.649328 10.9959C0.467707 10.9986 0.314044 10.9372 0.18834 10.8117C0.0627799 10.6859 0 10.5337 0 10.3548C0 10.1759 0.0627799 10.0236 0.18834 9.89791L4.58647 5.5L0.18834 1.10208C0.068415 0.982011 0.0070077 0.831093 0.00411795 0.649328C0.00137269 0.467707 0.0627799 0.314044 0.18834 0.18834C0.314044 0.0627799 0.466334 0 0.64521 0C0.824085 0 0.976375 0.0627799 1.10208 0.18834L5.49999 4.58647L9.89791 0.18834C10.018 0.068415 10.1689 0.0070077 10.3507 0.00411795C10.5323 0.00137269 10.6859 0.0627799 10.8117 0.18834C10.9372 0.314044 11 0.466334 11 0.64521C11 0.824086 10.9372 0.976376 10.8117 1.10208L6.41352 5.5L10.8117 9.89791C10.9316 10.018 10.993 10.1689 10.9959 10.3507C10.9986 10.5323 10.9372 10.6859 10.8117 10.8117C10.6859 10.9372 10.5337 11 10.3548 11C10.1759 11 10.0236 10.9372 9.89791 10.8117L5.49999 6.41352Z" fill="#161616"/>
</g>
</svg>
