<svg width="13" height="8" viewBox="0 0 13 8" fill="none" xmlns="http://www.w3.org/2000/svg">
<mask id="mask0_1_174" style="mask-type:alpha" maskUnits="userSpaceOnUse" x="-2" y="-5" width="17" height="18">
<rect x="-1.90799" y="-4.65596" width="16.8158" height="16.8158" fill="#D9D9D9"/>
</mask>
<g mask="url(#mask0_1_174)">
<path d="M1.22352 3.76278L4.06662 6.6057C4.16354 6.70274 4.21317 6.82471 4.21551 6.97161C4.21773 7.1184 4.1681 7.24259 4.06662 7.34419C3.96502 7.44567 3.84194 7.49641 3.69737 7.49641C3.5528 7.49641 3.42972 7.44567 3.32813 7.34419L0.179193 4.19526C0.113682 4.12963 0.0674384 4.06044 0.0404631 3.98769C0.0134878 3.91494 0 3.83634 0 3.75192C0 3.66749 0.0134878 3.5889 0.0404631 3.51614C0.0674384 3.44339 0.113682 3.3742 0.179193 3.30857L3.32813 0.159641C3.43241 0.0554768 3.55619 0.00228538 3.69947 6.6633e-05C3.84264 -0.00215212 3.96859 0.0510393 4.0773 0.159641C4.18602 0.26836 4.24038 0.393253 4.24038 0.534318C4.24038 0.675267 4.18602 0.800101 4.0773 0.90882L1.22352 3.76278ZM11.7765 3.74106L8.93339 0.898135C8.83647 0.801094 8.78684 0.679121 8.7845 0.532217C8.78228 0.385429 8.83191 0.261237 8.93339 0.159641C9.03499 0.0581626 9.15807 0.00742324 9.30264 0.00742324C9.44721 0.00742324 9.57029 0.0581626 9.67188 0.159641L12.8208 3.30857C12.8863 3.3742 12.9326 3.44339 12.9595 3.51614C12.9865 3.5889 13 3.66749 13 3.75192C13 3.83634 12.9865 3.91494 12.9595 3.98769C12.9326 4.06044 12.8863 4.12963 12.8208 4.19526L9.67188 7.34419C9.5676 7.44835 9.44563 7.49974 9.30597 7.49834C9.1663 7.49705 9.04211 7.44205 8.93339 7.33333C8.82479 7.22461 8.77049 7.09978 8.77049 6.95883C8.77049 6.81776 8.82479 6.69287 8.93339 6.58415L11.7765 3.74106Z" fill="#F5F5F5" fill-opacity="0.56"/>
</g>
</svg>
