<svg width="92" height="44" viewBox="0 0 92 44" fill="none" xmlns="http://www.w3.org/2000/svg">
<path d="M0 22C0 9.84974 9.84974 0 22 0C34.1503 0 44 9.84974 44 22C44 34.1503 34.1503 44 22 44C9.84974 44 0 34.1503 0 22Z" fill="#F5F5F5" fill-opacity="0.04"/>
<mask id="mask0_1_230" style="mask-type:alpha" maskUnits="userSpaceOnUse" x="12" y="12" width="20" height="20">
<rect x="12" y="12" width="20" height="20" fill="#D9D9D9"/>
</mask>
<g mask="url(#mask0_1_230)">
<path d="M18.1441 22.625L22.4519 26.9327C22.5757 27.0566 22.6369 27.2016 22.6354 27.3677C22.6337 27.5338 22.5683 27.6815 22.4391 27.8108C22.3098 27.9315 22.1635 27.994 22 27.9983C21.8365 28.0026 21.6901 27.9401 21.5608 27.8108L16.2773 22.5273C16.1992 22.4492 16.1442 22.3669 16.1123 22.2804C16.0802 22.1939 16.0641 22.1004 16.0641 22C16.0641 21.8995 16.0802 21.8061 16.1123 21.7195C16.1442 21.633 16.1992 21.5507 16.2773 21.4727L21.5608 16.1891C21.6762 16.0737 21.8191 16.0147 21.9896 16.012C22.16 16.0094 22.3098 16.0684 22.4391 16.1891C22.5683 16.3184 22.6329 16.4669 22.6329 16.6345C22.6329 16.8023 22.5683 16.9509 22.4391 17.0802L18.1441 21.375H27.625C27.8023 21.375 27.9508 21.4348 28.0704 21.5545C28.1901 21.6741 28.25 21.8226 28.25 22C28.25 22.1773 28.1901 22.3258 28.0704 22.4454C27.9508 22.5651 27.8023 22.625 27.625 22.625H18.1441Z" fill="#F5F5F5" fill-opacity="0.72"/>
</g>
<path d="M48 22C48 9.84974 57.8497 0 70 0C82.1503 0 92 9.84974 92 22C92 34.1503 82.1503 44 70 44C57.8497 44 48 34.1503 48 22Z" fill="#F5F5F5" fill-opacity="0.04"/>
<mask id="mask1_1_230" style="mask-type:alpha" maskUnits="userSpaceOnUse" x="60" y="12" width="20" height="20">
<rect x="60" y="12" width="20" height="20" fill="#D9D9D9"/>
</mask>
<g mask="url(#mask1_1_230)">
<path d="M73.8558 22.625H64.375C64.1976 22.625 64.0492 22.5651 63.9296 22.4454C63.8099 22.3258 63.75 22.1774 63.75 22C63.75 21.8226 63.8099 21.6742 63.9296 21.5546C64.0492 21.4349 64.1976 21.375 64.375 21.375H73.8558L69.5481 17.0673C69.4242 16.9434 69.3631 16.7984 69.3646 16.6323C69.3663 16.4662 69.4317 16.3185 69.5608 16.1892C69.6901 16.0685 69.8365 16.006 70 16.0017C70.1635 15.9974 70.3099 16.0599 70.4392 16.1892L75.7227 21.4727C75.8008 21.5508 75.8558 21.6331 75.8877 21.7196C75.9198 21.8061 75.9358 21.8996 75.9358 22C75.9358 22.1004 75.9198 22.1939 75.8877 22.2804C75.8558 22.367 75.8008 22.4492 75.7227 22.5273L70.4392 27.8108C70.3237 27.9263 70.1808 27.9853 70.0104 27.9879C69.84 27.9906 69.6901 27.9315 69.5608 27.8108C69.4317 27.6815 69.3671 27.5331 69.3671 27.3654C69.3671 27.1976 69.4317 27.0491 69.5608 26.9198L73.8558 22.625Z" fill="#F5F5F5" fill-opacity="0.72"/>
</g>
</svg>
