<svg width="20" height="20" viewBox="0 0 20 20" fill="none" xmlns="http://www.w3.org/2000/svg">
<path fill-rule="evenodd" clip-rule="evenodd" d="M11.3231 2.20903C11.2097 2.20903 11.1026 2.23422 11.0081 2.27202C11.216 2.40429 11.3294 2.58696 11.3861 2.79482C11.3861 2.82631 11.3987 2.84521 11.405 2.8767L11.4113 2.94599C11.4302 3.30502 11.3168 3.34911 11.2412 3.56327C11.1215 3.83412 11.153 4.13017 11.2979 4.36322C11.3105 4.39472 11.3231 4.42621 11.3483 4.45141C11.1908 3.4247 12.0474 3.26723 12.2112 2.94599C12.2238 2.66884 11.9908 2.47988 11.8081 2.3476C11.6629 2.25616 11.4946 2.20809 11.3231 2.20903ZM12.6269 2.44838C12.608 2.54287 12.6269 2.51767 12.6206 2.56806L12.608 2.67514L12.5828 2.76962L12.5513 2.8704L12.501 2.96489L12.4695 3.00898L12.4443 3.04677C12.4254 3.07827 12.4065 3.10976 12.3813 3.12866C12.3624 3.15385 12.3435 3.18534 12.3183 3.20424L12.2364 3.26723C12.1482 3.33652 12.0474 3.38691 11.9656 3.4499C11.9341 3.46879 11.9026 3.48139 11.8837 3.51288C11.8522 3.52548 11.827 3.55068 11.8018 3.57587L11.7325 3.65146L11.6695 3.73334L11.6128 3.81523L11.5687 3.90971L11.5372 4.00419C11.5254 4.03735 11.5149 4.07097 11.5057 4.10497L11.4994 4.16166L11.4931 4.20575L11.4868 4.31283V4.38212L11.5057 4.4829C11.5057 4.52069 11.512 4.54589 11.5246 4.58368L11.5561 4.67816L11.5813 4.74115L10.6491 4.37582L10.1767 4.24984L9.92474 4.18686C9.67891 4.13887 9.43085 4.10313 9.18148 4.07978H9.15628C8.48682 4.00769 7.81059 4.02889 7.14696 4.14276L6.958 4.18056C6.83202 4.19945 6.71234 4.23095 6.59897 4.25614L6.41 4.30653L6.23993 4.38212L6.10136 4.44511L6.08246 4.45141L5.96908 4.51439L5.93759 4.52069L5.81161 4.58368L5.73603 4.62777L5.69823 4.64667L5.59115 4.70966L5.49037 4.77265L5.40849 4.82934L5.40219 4.83563L5.32031 4.89862L5.25732 4.94901L5.23212 4.96791L5.16913 5.0183C5.16913 5.0309 5.16284 5.0309 5.15654 5.0372L5.08095 5.10018V5.11278C5.04946 5.13168 5.02426 5.15687 5.00537 5.18207L4.99277 5.18837L4.92978 5.25136C4.92978 5.26395 4.91088 5.27025 4.90458 5.28285L4.8416 5.35214L4.8164 5.37103L4.72822 5.47181L4.71562 5.48441C4.58449 5.62777 4.43643 5.75468 4.2747 5.86234C4.03935 6.02296 3.78286 6.15015 3.51255 6.24027C3.34248 6.27176 3.16611 6.34105 3.01494 6.35365L2.91416 6.36625L2.81338 6.39144L2.7126 6.42923L2.61811 6.47333L2.52993 6.53002C2.49844 6.54891 2.46694 6.57411 2.44805 6.5993C2.41655 6.6182 2.38506 6.64969 2.36616 6.67489L2.29687 6.75677L2.23389 6.84496L2.1772 6.93944L2.13311 7.04652L2.09531 7.1536L2.07642 7.24808V7.26068L2.04492 7.37406V7.50633C2.05029 7.55899 2.06523 7.61022 2.08901 7.6575L2.13311 7.73309L2.1835 7.80868C2.22994 7.85519 2.28054 7.89736 2.33467 7.93465C2.42915 8.02284 2.45434 8.05433 2.58032 8.11732L2.64331 8.14881H2.65591V8.17401C2.66882 8.24143 2.68998 8.30701 2.7189 8.36927L2.75039 8.44486L2.75669 8.46375C2.79099 8.52471 2.82885 8.58361 2.87007 8.64012L2.93305 8.7157L3.01494 8.78499H3.02124C3.11938 8.87218 3.2355 8.93669 3.36137 8.97396L3.38027 8.98026L3.43066 8.99285C3.41806 9.21331 3.41176 9.42117 3.44956 9.49676C3.48105 9.57234 3.66372 9.32669 3.84008 9.04324C3.81489 9.32039 3.80229 9.65423 3.84008 9.74871C3.88418 9.84949 4.12983 9.53455 4.34399 9.18182C5.00104 9.02243 5.68473 9.00652 6.34848 9.13517C7.01224 9.26382 7.64047 9.534 8.1904 9.92732C8.74033 10.3206 9.19904 10.8279 9.53528 11.4144C9.87152 12.001 10.0774 12.6531 10.1389 13.3264C10.0885 12.8855 9.54681 12.6462 9.29486 12.7029C9.16888 13.0052 8.96732 13.3957 8.63348 13.6351C8.65868 13.3642 8.64608 13.0871 8.58939 12.8162C8.50121 13.1942 8.32484 13.5406 8.08549 13.8429C7.89902 13.8556 7.7123 13.822 7.54197 13.7451C7.37163 13.6681 7.22296 13.5503 7.10917 13.402L7.07768 13.3516L7.04618 13.2634L7.02099 13.1816V13.0304C7.02099 12.9989 7.02729 12.9674 7.03988 12.9422C7.03988 12.917 7.05248 12.8855 7.06508 12.8603L7.11547 12.7721C7.17846 12.5832 7.17846 12.4194 7.05248 12.3312L6.98319 12.2871L6.9265 12.2682L6.89501 12.2556L6.80683 12.2367C6.78021 12.229 6.75267 12.2247 6.72494 12.2241L6.63676 12.2178H6.57377L6.48559 12.2304L6.3974 12.2493L6.31552 12.2745L6.23363 12.3123L6.15175 12.3564C5.20693 12.9737 5.77382 14.4224 6.4163 14.8445C6.17694 14.8885 5.92499 14.9389 5.85571 14.9893L5.84941 15.0019C6.22317 15.2248 6.63213 15.3824 7.05878 15.468C7.57239 15.5682 8.10096 15.5633 8.61261 15.4535C9.12425 15.3438 9.60836 15.1315 10.0357 14.8295C10.4631 14.5276 10.8248 14.1421 11.0991 13.6965C11.3734 13.2509 11.5546 12.7543 11.6317 12.2367L11.6569 12.3438C11.6695 12.4194 11.6884 12.495 11.6947 12.5769L11.7073 12.684V12.7029L11.7199 12.8036L11.7262 12.9422V13.2823L11.7199 13.3327V13.4272C11.7073 13.4398 11.7073 13.4524 11.7073 13.4587C11.7073 13.4965 11.7073 13.5217 11.6947 13.5532V13.591C11.6947 13.6351 11.6821 13.6666 11.6758 13.7107V13.717L11.6506 13.8303V13.8429C11.6506 13.8807 11.638 13.9185 11.6254 13.9563V13.9689L11.5939 14.0823V14.0949L11.5624 14.2083V14.2146L11.5246 14.3405L11.4805 14.4539L11.4302 14.5736L11.3861 14.6933C11.3609 14.7248 11.3483 14.7689 11.3231 14.8067L11.3168 14.8319C11.3168 14.8319 11.3168 14.8445 11.3042 14.8445C11.036 15.3828 10.6455 15.8509 10.1641 16.2113L10.0633 16.2806C10.0633 16.2932 10.0444 16.2932 10.0381 16.3058L9.94994 16.3688L9.96253 16.3877L10.1326 16.3625H10.1389C10.276 16.3406 10.4125 16.3153 10.5483 16.2869L10.605 16.2743L10.6869 16.2554L10.7625 16.2365C11.1656 16.142 11.5624 16.0034 11.9404 15.846C11.2979 16.7278 10.4286 17.4396 9.41454 17.912C10.4938 17.8389 11.5377 17.4976 12.4517 16.919C13.3658 16.3405 14.1209 15.543 14.6489 14.5988C14.4788 15.5436 14.1072 16.4318 13.5529 17.2128C14.2979 16.7216 14.9321 16.0801 15.4148 15.3295C15.8975 14.5789 16.218 13.7357 16.3558 12.854C16.4944 13.4965 16.5322 14.1579 16.4692 14.813C19.4108 10.7187 16.7212 6.46703 15.5874 5.34584L15.5811 5.32694V5.33324L15.5748 5.32694L15.5622 5.47181C15.5518 5.5624 15.5392 5.65271 15.5244 5.74266L15.4551 6.01351C15.3954 6.18719 15.3217 6.35571 15.2346 6.51742C15.0733 6.80441 14.8622 7.06036 14.6111 7.27328L14.5166 7.36146C14.3738 7.47876 14.2173 7.57818 14.0505 7.6575L13.7985 7.77088C13.6231 7.83676 13.4417 7.88529 13.2568 7.91576L12.9797 7.95355C12.7287 7.9669 12.477 7.94998 12.2301 7.90316L11.9593 7.83387C12.421 7.79293 12.8671 7.64638 13.2631 7.40555L13.4899 7.24178L13.6977 7.05912L13.8867 6.85755C13.9497 6.78827 14.0064 6.71268 14.0568 6.6371C14.0694 6.6308 14.0757 6.6119 14.082 6.5993L14.2016 6.40404C14.2915 6.24371 14.3653 6.07492 14.4221 5.90013C14.4473 5.81195 14.4725 5.71747 14.4851 5.62929C14.504 5.5348 14.5229 5.44662 14.5292 5.35844L14.5481 5.08129L14.5418 4.88603L14.504 4.61518C14.4914 4.52069 14.4725 4.42621 14.441 4.33803C14.4158 4.25614 14.3906 4.16796 14.3528 4.07978C14.3213 3.99159 14.2835 3.90971 14.2394 3.82782L14.1009 3.58847C13.9945 3.43658 13.8788 3.29143 13.7544 3.15385C13.5379 2.92839 13.2816 2.74476 12.9986 2.61215C12.8789 2.53027 12.7529 2.48618 12.6269 2.44838Z" fill="#F5F5F5" fill-opacity="0.72"/>
</svg>
