<svg width="20" height="20" viewBox="0 0 20 20" fill="none" xmlns="http://www.w3.org/2000/svg">
<g clip-path="url(#clip0_52_10072)">
<path d="M10.0295 8.38898C9.14782 8.38898 8.43311 9.1037 8.43311 9.98534C8.43311 10.867 9.14782 11.5817 10.0295 11.5817C10.9111 11.5817 11.6258 10.867 11.6258 9.98534C11.6258 9.1037 10.9111 8.38898 10.0295 8.38898Z" fill="#F5F5F5" fill-opacity="0.72"/>
<path d="M18.3325 9.99984C18.3325 8.74656 17.1719 7.64738 15.324 6.924C15.3487 6.76109 15.3711 6.59994 15.3869 6.44174C15.5692 4.64093 15.1353 3.3412 14.1658 2.78132C13.0811 2.15497 11.5489 2.60959 9.99974 3.84933C8.45054 2.60959 6.91839 2.15497 5.83366 2.78132C4.86416 3.3412 4.43027 4.64093 4.61253 6.44174C4.6284 6.59994 4.65015 6.76168 4.67543 6.92517C4.5214 6.98398 4.3703 7.04632 4.22508 7.1116C2.57535 7.85322 1.66699 8.88006 1.66699 9.99984C1.66699 11.2531 2.82757 12.3523 4.67543 13.0757C4.65015 13.2386 4.6284 13.3997 4.61253 13.5579C4.43027 15.3587 4.86416 16.6585 5.83366 17.2184C6.16698 17.4074 6.54468 17.504 6.9278 17.4983C7.84615 17.4983 8.91853 17.0149 9.99974 16.1503C11.0804 17.0149 12.1533 17.4983 13.0729 17.4983C13.456 17.5039 13.8336 17.4073 14.167 17.2184C15.1365 16.6585 15.5704 15.3587 15.3881 13.5579C15.3722 13.3997 15.3499 13.2386 15.3252 13.0757C17.1731 12.3535 18.3337 11.2525 18.3337 9.99984M13.0658 3.29533C13.3121 3.28939 13.5556 3.34906 13.7713 3.46823C14.4445 3.85698 14.7467 4.91147 14.5997 6.36117C14.5897 6.45997 14.578 6.55995 14.5638 6.66052C13.7955 6.42906 13.0087 6.26398 12.2121 6.16709C11.7292 5.52502 11.1923 4.9255 10.6071 4.37511C11.526 3.66466 12.3885 3.29533 13.0652 3.29533M12.7495 11.5877C12.4521 12.104 12.1283 12.6046 11.7794 13.0874C11.1879 13.1482 10.5937 13.1784 9.99915 13.178C9.40477 13.1784 8.81076 13.1482 8.21948 13.0874C7.87147 12.6046 7.54866 12.104 7.25234 11.5877C6.955 11.0729 6.68477 10.5429 6.44276 9.99984C6.68477 9.45678 6.955 8.92676 7.25234 8.41193C7.54819 7.89776 7.87001 7.39898 8.21654 6.91753C8.8089 6.85525 9.40412 6.82423 9.99974 6.8246C10.5941 6.82424 11.1881 6.85448 11.7794 6.91517C12.1271 7.39737 12.4501 7.89693 12.7471 8.41193C13.0442 8.92688 13.3145 9.4569 13.5567 9.99984C13.3145 10.5428 13.0442 11.0728 12.7471 11.5877M13.9612 10.9996C14.1478 11.5086 14.301 12.0292 14.4198 12.5581C13.9042 12.7189 13.3787 12.8456 12.8465 12.9375C13.0487 12.6324 13.2447 12.315 13.4344 11.9853C13.622 11.6595 13.7978 11.3307 13.9636 11.002M8.88326 13.9361C9.24895 13.9584 9.62229 13.9714 10.0003 13.9714C10.3784 13.9714 10.7541 13.9584 11.1203 13.9361C10.773 14.3522 10.3989 14.7451 10.0003 15.1123C9.6026 14.7452 9.22944 14.3522 8.88326 13.9361ZM7.15356 12.9363C6.62122 12.8449 6.09546 12.7185 5.57967 12.5581C5.698 12.03 5.8506 11.5102 6.03649 11.002C6.19994 11.3307 6.37514 11.6595 6.56563 11.9853C6.75612 12.3111 6.95308 12.6322 7.15356 12.9375M6.03649 8.9971C5.85126 8.49074 5.69906 7.9729 5.58085 7.44683C6.09535 7.28624 6.61971 7.15914 7.15062 7.06632C6.94955 7.37037 6.75259 7.6856 6.56269 8.01436C6.37279 8.34312 6.19935 8.66776 6.03356 8.9971M11.1168 6.063C10.7511 6.04065 10.3778 6.02771 9.9968 6.02771C9.61895 6.02771 9.2466 6.03947 8.87973 6.063C9.22591 5.64685 9.59907 5.25393 9.9968 4.88677C10.3955 5.25383 10.7697 5.64676 11.1168 6.063ZM13.4333 8.01436C13.2428 7.68423 13.0458 7.36665 12.8424 7.06161C13.376 7.15346 13.9029 7.28037 14.4198 7.44154C14.3012 7.96956 14.1486 8.48936 13.963 8.99769C13.7995 8.66893 13.6237 8.34018 13.4338 8.01495M5.40212 6.36176C5.25337 4.91264 5.55733 3.85757 6.22992 3.46882C6.44569 3.34983 6.68913 3.29017 6.93544 3.29592C7.61215 3.29592 8.47464 3.66525 9.39358 4.3757C8.808 4.92648 8.27063 5.52639 7.78735 6.16886C6.991 6.2662 6.2043 6.43067 5.43563 6.66052C5.42211 6.55995 5.40976 6.46056 5.40035 6.36176M4.55079 7.83557C4.64133 7.79637 4.73364 7.75716 4.82771 7.71795C5.01264 8.49841 5.26341 9.26177 5.57732 9.99984C5.26282 10.7393 5.01185 11.5043 4.82712 12.2864C3.32907 11.6718 2.4607 10.8203 2.4607 9.99984C2.4607 9.22235 3.22501 8.43369 4.55079 7.83557ZM6.22992 16.5308C5.55733 16.1421 5.25337 15.087 5.40212 13.6379C5.41152 13.5391 5.42387 13.4397 5.43739 13.3386C6.20576 13.57 6.99255 13.735 7.78912 13.832C8.27216 14.4743 8.80912 15.0742 9.39417 15.6252C8.11307 16.6149 6.9425 16.9414 6.23169 16.5308M14.5991 13.6379C14.7461 15.0876 14.4439 16.1421 13.7707 16.5308C13.0605 16.9425 11.8893 16.6149 10.6088 15.6252C11.1937 15.0742 11.7305 14.4743 12.2133 13.832C13.0099 13.7351 13.7967 13.57 14.565 13.3386C14.5791 13.4397 14.5909 13.5391 14.6009 13.6379M15.1759 12.2852C14.9906 11.5036 14.7395 10.739 14.4251 9.99984C14.7393 9.26022 14.9903 8.49529 15.1753 7.71325C16.6704 8.32783 17.5411 9.17942 17.5411 9.99984C17.5411 10.8203 16.6728 11.6718 15.1747 12.2864" fill="#F5F5F5" fill-opacity="0.72"/>
</g>
<defs>
<clipPath id="clip0_52_10072">
<rect width="16.6667" height="14.9971" fill="white" transform="translate(1.66699 2.50146)"/>
</clipPath>
</defs>
</svg>
