<svg width="10" height="13" viewBox="0 0 10 13" fill="none" xmlns="http://www.w3.org/2000/svg">
<mask id="mask0_1_164" style="mask-type:alpha" maskUnits="userSpaceOnUse" x="-3" y="-2" width="16" height="17">
<rect x="-3" y="-1.7795" width="16" height="16" fill="#D9D9D9"/>
</mask>
<g mask="url(#mask0_1_164)">
<path d="M5 12.4678C4.93078 12.4678 4.86283 12.4623 4.79617 12.4512C4.7295 12.4401 4.66494 12.4234 4.6025 12.4012C3.19661 11.9012 2.07806 11.0147 1.24683 9.74167C0.415611 8.46856 0 7.09483 0 5.6205V2.618C0 2.36478 0.0728334 2.13683 0.2185 1.93417C0.364056 1.73161 0.552333 1.58478 0.783333 1.49367L4.57817 0.0769999C4.72094 0.0256666 4.86156 0 5 0C5.13844 0 5.27906 0.0256666 5.42183 0.0769999L9.21667 1.49367C9.44767 1.58478 9.63595 1.73161 9.7815 1.93417C9.92717 2.13683 10 2.36478 10 2.618V5.6205C10 7.09483 9.58439 8.46856 8.75317 9.74167C7.92194 11.0147 6.80339 11.9012 5.3975 12.4012C5.33506 12.4234 5.2705 12.4401 5.20383 12.4512C5.13717 12.4623 5.06922 12.4678 5 12.4678ZM5 11.4872C6.15556 11.1205 7.11111 10.3872 7.86667 9.28717C8.62222 8.18717 9 6.96494 9 5.6205V2.6115C9 2.56883 8.98822 2.53039 8.96467 2.49617C8.94122 2.46194 8.90811 2.43628 8.86533 2.41917L5.0705 1.0025C5.04917 0.993944 5.02567 0.989667 5 0.989667C4.97433 0.989667 4.95083 0.993944 4.9295 1.0025L1.13467 2.41917C1.09189 2.43628 1.05878 2.46194 1.03533 2.49617C1.01178 2.53039 1 2.56883 1 2.6115V5.6205C1 6.96494 1.37778 8.18717 2.13333 9.28717C2.88889 10.3872 3.84444 11.1205 5 11.4872Z" fill="#F5F5F5" fill-opacity="0.56"/>
</g>
</svg>
