<svg width="20" height="20" viewBox="0 0 20 20" fill="none" xmlns="http://www.w3.org/2000/svg">
<g clip-path="url(#clip0_52_10090)">
<path d="M16.75 2C17.4404 2 18 2.55963 18 3.25V16.75C18 17.4404 17.4404 18 16.75 18H3.25C2.55963 18 2 17.4404 2 16.75V3.25C2 2.55963 2.55963 2 3.25 2H16.75ZM14.415 8.6875C14.0047 8.6875 13.6152 8.73121 13.248 8.81934C12.881 8.9074 12.5582 9.04547 12.2793 9.23242C12.0004 9.41948 11.7802 9.65779 11.6182 9.94727C11.4563 10.2367 11.375 10.5826 11.375 10.9854C11.375 11.4996 11.5234 11.9385 11.8203 12.3018C12.1173 12.6649 12.5682 12.9729 13.1729 13.2246C13.396 13.3155 13.6176 13.4101 13.8369 13.5098C14.0421 13.6033 14.2198 13.7011 14.3691 13.8018C14.5183 13.9024 14.6364 14.0123 14.7227 14.1309C14.8088 14.2495 14.8516 14.3843 14.8516 14.5352C14.8523 14.6439 14.8243 14.7512 14.7705 14.8457C14.7166 14.9408 14.635 15.0237 14.5254 15.0938C14.4157 15.1638 14.2788 15.2183 14.1152 15.2578C13.9515 15.2974 13.7596 15.3174 13.54 15.3174C13.1657 15.3174 12.7949 15.2514 12.4277 15.1201C12.0606 14.9889 11.7203 14.7918 11.4072 14.5293V16.2559C11.688 16.3997 12.02 16.5081 12.4033 16.5801C12.7865 16.652 13.1906 16.6875 13.6152 16.6875C14.029 16.6875 14.4225 16.6475 14.7949 16.5684C15.1674 16.4892 15.4947 16.3593 15.7754 16.1777C16.0559 15.9962 16.2777 15.7587 16.4414 15.4658C16.6051 15.1728 16.6875 14.8104 16.6875 14.3789C16.6875 14.066 16.6404 13.7912 16.5469 13.5557C16.4544 13.322 16.3172 13.1085 16.1426 12.9277C15.9663 12.7443 15.7543 12.5793 15.5078 12.4336C15.2613 12.288 14.9832 12.1509 14.6738 12.0215C14.4471 11.9279 14.2435 11.8371 14.0635 11.749C13.8836 11.6609 13.7304 11.5712 13.6045 11.4795C13.4785 11.3878 13.3819 11.29 13.3135 11.1875C13.2451 11.085 13.2109 10.9693 13.2109 10.8398C13.2109 10.7212 13.2416 10.6139 13.3027 10.5186C13.3639 10.4234 13.4501 10.3416 13.5615 10.2734C13.673 10.2051 13.8098 10.1521 13.9717 10.1143C14.1336 10.0765 14.3138 10.0576 14.5117 10.0576C14.6557 10.0576 14.8077 10.0683 14.9678 10.0898C15.1279 10.1114 15.2892 10.1445 15.4512 10.1895C15.6127 10.2342 15.7708 10.291 15.9238 10.3594C16.0722 10.4251 16.2141 10.5046 16.3477 10.5967V8.98438C16.0849 8.8837 15.7976 8.80931 15.4863 8.76074C15.1751 8.7122 14.818 8.68752 14.415 8.6875ZM4.5625 10.2334H6.77148V16.5625H8.53027V10.2334H10.75V8.8125H4.5625V10.2334Z" fill="#F5F5F5" fill-opacity="0.72"/>
</g>
<defs>
<clipPath id="clip0_52_10090">
<rect width="16" height="16" fill="white" transform="translate(2 2)"/>
</clipPath>
</defs>
</svg>
