<svg width="20" height="20" viewBox="0 0 20 20" fill="none" xmlns="http://www.w3.org/2000/svg">
<path d="M18.4375 0C19.3004 0.000109539 20 0.699592 20 1.56248V18.4375C19.9999 19.3003 19.3003 19.9999 18.4375 20H1.56248C0.699592 20 0.000109539 19.3004 0 18.4375V1.56248C3.35526e-08 0.699524 0.699524 3.35528e-08 1.56248 0H18.4375ZM15.518 8.3597C15.0052 8.3597 14.5192 8.41434 14.0603 8.52449C13.6015 8.63457 13.1974 8.80651 12.8488 9.04023C12.5004 9.27393 12.2252 9.57179 12.0228 9.93337C11.8204 10.2951 11.7187 10.7281 11.7186 11.2314C11.7186 11.8741 11.9039 12.4232 12.2751 12.8773C12.6462 13.3312 13.21 13.7151 13.9657 14.0298C14.2447 14.1434 14.5215 14.2633 14.7958 14.3879C15.0523 14.5047 15.2743 14.6262 15.4611 14.752C15.6476 14.8778 15.7947 15.0148 15.9025 15.163C16.0105 15.3113 16.0643 15.4798 16.0643 15.6686C16.0652 15.8044 16.0307 15.9381 15.9636 16.0562C15.8962 16.1752 15.7936 16.2788 15.6564 16.3664C15.5192 16.454 15.3483 16.5224 15.1437 16.5719C14.939 16.6213 14.6989 16.6462 14.4245 16.6462C13.9568 16.6461 13.4937 16.5641 13.0349 16.4C12.576 16.2359 12.1507 15.9897 11.7593 15.6615V17.82C12.1102 17.9998 12.5254 18.134 13.0044 18.2239C13.4835 18.3138 13.9883 18.3592 14.5191 18.3592C15.0364 18.3592 15.5285 18.3096 15.9941 18.2107C16.4596 18.1118 16.8681 17.9493 17.2189 17.7224C17.5696 17.4955 17.8472 17.1985 18.052 16.8323C18.2567 16.466 18.3592 16.0127 18.3592 15.4733C18.3592 15.0822 18.3011 14.7393 18.1842 14.4448C18.0686 14.1524 17.8961 13.8857 17.6776 13.6595C17.4573 13.4303 17.1932 13.2241 16.8852 13.0421C16.5771 12.8601 16.2293 12.6881 15.8425 12.5263C15.5591 12.4094 15.3046 12.2957 15.0796 12.1855C14.8547 12.0754 14.6633 11.9635 14.5059 11.8488C14.3484 11.7343 14.2272 11.6127 14.1417 11.4847C14.0562 11.3565 14.0135 11.2112 14.0135 11.0493C14.0136 10.9012 14.0511 10.7675 14.1275 10.6485C14.2039 10.5294 14.3125 10.4267 14.452 10.3413C14.5913 10.2559 14.7623 10.1902 14.9647 10.1429C15.1671 10.0957 15.3927 10.0717 15.6401 10.0717C15.8199 10.0717 16.0098 10.0855 16.2098 10.1124C16.41 10.1394 16.6115 10.1813 16.814 10.2375C17.0157 10.2935 17.2129 10.3647 17.404 10.4501C17.5894 10.5323 17.7671 10.631 17.934 10.7461V8.72997C17.6056 8.60415 17.2468 8.51092 16.8577 8.45023C16.4686 8.38953 16.0219 8.3597 15.518 8.3597ZM3.2033 10.2925H5.96409V18.2025H8.16235V10.2925H10.9374V8.51533H3.2033V10.2925Z" fill="#F5F5F5" fill-opacity="0.72"/>
</svg>
