<svg width="20" height="20" viewBox="0 0 20 20" fill="none" xmlns="http://www.w3.org/2000/svg">
<mask id="mask0_1_153" style="mask-type:alpha" maskUnits="userSpaceOnUse" x="-3" y="-2" width="25" height="25">
<rect x="-2.6364" y="-1.55451" width="24.1908" height="24.1908" fill="#D9D9D9"/>
</mask>
<g mask="url(#mask0_1_153)">
<path d="M3.77982 2.85527C3.93605 2.69887 4.11563 2.62067 4.31857 2.62067C4.5215 2.62067 4.70109 2.69887 4.85732 2.85527L6.44484 4.45842C6.59486 4.60827 6.67146 4.78365 6.67466 4.98457C6.67785 5.18549 6.60124 5.36415 6.44484 5.52055C6.28861 5.67695 6.10903 5.75515 5.90609 5.75515C5.70316 5.75515 5.52357 5.67695 5.36734 5.52055L3.7642 3.93303C3.61435 3.78318 3.54035 3.60519 3.54219 3.39906C3.54421 3.19294 3.62342 3.01168 3.77982 2.85527ZM10.4673 0C10.6817 0 10.8612 0.0724886 11.0058 0.217466C11.1506 0.362275 11.223 0.541774 11.223 0.755964V3.02385C11.223 3.23804 11.1505 3.41763 11.0056 3.5626C10.8606 3.70741 10.681 3.77982 10.4668 3.77982C10.2525 3.77982 10.073 3.70741 9.92832 3.5626C9.78351 3.41763 9.71111 3.23804 9.71111 3.02385V0.755964C9.71111 0.541774 9.7836 0.362275 9.92857 0.217466C10.0736 0.0724886 10.2531 0 10.4673 0ZM14.4795 13.5552C14.6359 13.3988 14.8155 13.3206 15.0182 13.3206C15.2212 13.3206 15.4008 13.3988 15.5572 13.5552L17.1448 15.1581C17.2946 15.3079 17.3711 15.4833 17.3743 15.6842C17.3777 15.8853 17.3012 16.064 17.1448 16.2202C16.9884 16.3766 16.8087 16.4548 16.6057 16.4548C16.403 16.4548 16.2234 16.3766 16.067 16.2202L14.4641 14.6327C14.3141 14.4828 14.2401 14.3048 14.2421 14.0987C14.244 13.8926 14.3231 13.7114 14.4795 13.5552ZM17.3385 2.6615C17.4949 2.8179 17.5731 2.99748 17.5731 3.20025C17.5731 3.40318 17.4949 3.58285 17.3385 3.73925L15.7356 5.34214C15.5856 5.49199 15.4102 5.56599 15.2092 5.56414C15.0083 5.56213 14.8297 5.483 14.6733 5.32677C14.517 5.17037 14.4389 4.9907 14.4389 4.78777C14.4389 4.585 14.517 4.40542 14.6733 4.24902L16.2608 2.6615C16.4108 2.51165 16.5889 2.43504 16.795 2.43168C17.001 2.42849 17.1821 2.5051 17.3385 2.6615ZM20 9.53321C20 9.74756 19.9275 9.92706 19.7826 10.0717C19.6378 10.2165 19.4583 10.2889 19.2441 10.2889H16.9762C16.762 10.2889 16.5824 10.2164 16.4374 10.0715C16.2926 9.92647 16.2202 9.74689 16.2202 9.5327C16.2202 9.31834 16.2926 9.13884 16.4374 8.9942C16.5824 8.84939 16.762 8.77699 16.9762 8.77699H19.2441C19.4583 8.77699 19.6378 8.84948 19.7826 8.99446C19.9275 9.13943 20 9.31902 20 9.53321ZM2.54886 19.717L0.273155 17.4416C0.0910515 17.2593 0 17.0467 0 16.8038C0 16.5609 0.0910515 16.3483 0.273155 16.166L9.13935 7.28447C9.62837 6.79343 10.2223 6.5479 10.9212 6.5479C11.6198 6.5479 12.2147 6.79267 12.7057 7.2822C13.1969 7.77173 13.4425 8.36617 13.4425 9.06552C13.4425 9.76487 13.1969 10.3601 12.7057 10.8511L3.82417 19.717C3.64207 19.8993 3.42955 19.9905 3.18664 19.9905C2.94372 19.9905 2.73113 19.8993 2.54886 19.717ZM3.18664 18.2401L9.51153 11.9152L8.0752 10.5041L1.77551 16.8038L3.18664 18.2401Z" fill="#F5F5F5"/>
</g>
</svg>
