<svg width="36" height="36" viewBox="0 0 36 36" fill="none" xmlns="http://www.w3.org/2000/svg">
<path d="M26.0777 29.8459L29.6854 26.0706L28.6055 25.038L29.1245 24.4934L28.5891 23.9817L28.0701 24.5262L27.5255 24.0072L28.0446 23.4626L28.5891 23.9817L29.1008 23.4463L27.4782 21.8946L27.9899 21.3592L28.5344 21.8782L29.0535 21.3337L28.5089 20.8146L29.0207 20.2792L29.5652 20.7983L29.0535 21.3337L29.5889 21.8454L31.1333 20.23L31.6778 20.7491L32.1968 20.2046L31.6523 19.6855L33.1967 18.0701L32.6612 17.5584L32.1495 18.0938L31.605 17.5748L32.1167 17.0393L32.6612 17.5584L33.173 17.0229L32.6285 16.5039L33.1475 15.9594L32.6121 15.4476L32.093 15.9922L31.5485 15.4731L32.0675 14.9286L31.5321 14.4168L31.0131 14.9614L30.4777 14.4496L30.9967 13.9051L30.4522 13.386L29.9331 13.9306L29.3977 13.4188L29.9167 12.8743L29.3722 12.3553L28.8532 12.8998L28.3177 12.388L27.806 12.9235L28.3414 13.4352L27.8296 13.9706L27.2942 13.4589L27.806 12.9235L27.2614 12.4044L25.7171 14.0198L25.1817 13.5081L24.6626 14.0526L25.198 14.5644L23.6537 16.1797L24.1982 16.6988L24.71 16.1633L25.2454 16.6751L24.7336 17.2105L24.1982 16.6988L23.6792 17.2433L24.2146 17.7551L23.7029 18.2905L24.2474 18.8095L24.7591 18.2741L25.2946 18.7859L24.7828 19.3213L25.3273 19.8403L25.8391 19.3049L26.3745 19.8166L25.8628 20.3521L26.3982 20.8638L26.91 20.3284L27.4545 20.8474L26.9427 21.3829L26.3982 20.8638L25.8865 21.3992L26.431 21.9183L25.9119 22.4628L25.3674 21.9438L25.8865 21.3992L25.351 20.8875L24.832 21.432L24.2965 20.9203L23.7848 21.4557L24.3202 21.9675L23.8012 22.512L23.2658 22.0002L23.7848 21.4557L23.2403 20.9367L22.7212 21.4812L22.1858 20.9694L23.2184 19.8895L22.1385 18.8569L22.6575 18.3123L23.1929 18.8241L23.7047 18.2887L22.0893 16.7443L22.601 16.2089L22.0565 15.6898L21.5447 16.2253L21.0093 15.7135L21.5211 15.1781L20.9857 14.6663L20.4739 15.2018L19.3939 14.1692L18.3613 15.2491L17.2814 14.2165L14.1854 17.4564L14.7208 17.9681L15.2398 17.4236L15.7843 17.9426L15.2653 18.4872L14.7208 17.9681L14.209 18.5036L14.7536 19.0226L14.2418 19.558L14.7772 20.0698L15.289 19.5344L15.8335 20.0534L15.3218 20.5888L14.7772 20.0698L14.2582 20.6143L16.9535 23.1895L17.4726 22.6449L16.9372 22.1332L17.4489 21.5978L17.9843 22.1095L17.4726 22.6449L18.0171 23.164L18.5289 22.6285L19.0643 23.1403L19.5761 22.6049L19.0406 22.0931L19.5597 21.5486L20.0951 22.0603L19.5761 22.6049L20.1206 23.1239L20.6396 22.5794L21.1751 23.0911L20.656 23.6357L21.2005 24.1547L21.7196 23.6102L22.255 24.1219L21.736 24.6664L21.2005 24.1547L20.6888 24.6901L21.2242 25.2019L20.7125 25.7373L20.177 25.2256L19.658 25.7701L20.1934 26.2818L19.6817 26.8173L19.1463 26.3055L19.658 25.7701L19.1135 25.2511L18.6017 25.7865L18.0663 25.2747L18.5781 24.7393L19.1135 25.2511L19.6325 24.7065L18.0171 23.1622L17.4981 23.7067L18.0335 24.2184L17.5218 24.7539L16.9863 24.2421L17.4981 23.7067L16.9535 23.1877L16.4418 23.7231L15.9064 23.2113L15.3873 23.7559L15.9228 24.2676L15.411 24.803L14.8756 24.2913L15.3873 23.7559L14.8428 23.2368L13.2984 24.8522L12.763 24.3405L12.244 24.885L12.7794 25.3967L11.7541 26.4694L12.834 27.502L12.315 28.0466L11.7796 27.5348L11.2678 28.0702L12.8832 29.6146L12.3642 30.1591L12.9087 30.6782L13.4277 30.1336L13.9632 30.6454L13.4441 31.1899L13.9887 31.709L14.5077 31.1644L16.1231 32.7088L16.6348 32.1734L16.0903 31.6543L16.6093 31.1098L17.6893 32.1424L18.7146 31.0697L19.2592 31.5888L19.7782 31.0442L19.2337 30.5252L20.778 28.9098L20.2426 28.3981L19.7309 28.9335L19.1863 28.4144L19.6981 27.879L20.2426 28.3981L20.7616 27.8535L20.2171 27.3345L20.7289 26.7991L21.2734 27.3181L20.7616 27.8535L21.2971 28.3653L21.8088 27.8298L22.3534 28.3489L21.8416 28.8843L22.377 29.3961L22.8888 28.8606L24.5115 30.4123L25.0305 29.8677L24.486 29.3487L24.9977 28.8133L26.0777 29.8459ZM28.0919 25.5734L28.6364 26.0924L28.1174 26.637L27.5729 26.1179L28.0919 25.5734ZM27.0611 26.6534L27.6056 27.1724L27.0866 27.7169L26.5421 27.1979L27.0611 26.6534ZM26.0285 27.7333L26.573 28.2524L26.054 28.7969L25.5095 28.2779L26.0285 27.7333ZM31.0841 18.1193L31.6286 18.6383L31.1169 19.1738L30.5724 18.6547L31.0841 18.1193ZM30.0533 19.1993L30.5979 19.7183L30.0861 20.2537L29.5416 19.7347L30.0533 19.1993ZM25.7663 16.1269L25.2308 15.6152L25.7426 15.0797L26.278 15.5915L25.7663 16.1269ZM26.7971 15.047L26.2616 14.5352L26.7734 13.9998L27.3088 14.5115L26.7971 15.047ZM25.8136 18.2395L25.2782 17.7277L25.7899 17.1923L26.3253 17.7041L25.8136 18.2395ZM26.8444 17.1595L26.309 16.6478L26.8207 16.1124L27.3561 16.6241L26.8444 17.1595ZM27.877 16.0796L27.3416 15.5678L27.8533 15.0324L28.3888 15.5441L27.877 16.0796ZM28.9096 14.9996L28.3742 14.4879L28.8859 13.9524L29.4214 14.4642L28.9096 14.9996ZM26.8936 19.2703L26.3581 18.7585L26.8699 18.2231L27.4053 18.7349L26.8936 19.2703ZM27.9244 18.1903L27.3889 17.6786L27.9007 17.1431L28.4361 17.6549L27.9244 18.1903ZM28.957 17.1104L28.4215 16.5986L28.9333 16.0632L29.4687 16.5749L28.957 17.1104ZM29.9896 16.0322L29.4541 15.5205L29.9659 14.985L30.5013 15.4968L29.9896 16.0322ZM16.2943 17.4054L15.7498 16.8864L16.2688 16.3418L16.8133 16.8609L16.2943 17.4054ZM17.3269 16.3273L16.7824 15.8082L17.3014 15.2637L17.8459 15.7827L17.3269 16.3273ZM16.3435 19.518L15.7989 18.9989L16.318 18.4544L16.8625 18.9734L16.3435 19.518ZM17.3743 18.438L16.8297 17.919L17.3488 17.3744L17.8933 17.8935L17.3743 18.438ZM18.4068 17.358L17.8623 16.839L18.3814 16.2945L18.9259 16.8135L18.4068 17.358ZM19.4376 16.2781L18.8931 15.759L19.4121 15.2145L19.9567 15.7335L19.4376 16.2781ZM16.3908 21.6141L15.8554 21.1024L16.3671 20.567L16.9026 21.0787L16.3908 21.6141ZM17.4143 20.5415L16.8789 20.0297L17.3979 19.4852L17.9333 19.9969L17.4143 20.5415ZM18.4469 19.4633L17.9115 18.9516L18.4305 18.407L18.966 18.9188L18.4469 19.4633ZM19.4777 18.3834L18.9423 17.8716L19.4613 17.3271L19.9967 17.8388L19.4777 18.3834ZM20.5103 17.3034L19.9749 16.7917L20.4939 16.2471L21.0294 16.7589L20.5103 17.3034ZM18.4943 21.5741L17.9588 21.0623L18.4779 20.5178L19.0133 21.0295L18.4943 21.5741ZM19.5269 20.4941L18.9914 19.9824L19.5105 19.4378L20.0459 19.9496L19.5269 20.4941ZM20.5577 19.4142L20.0222 18.9024L20.5413 18.3579L21.0767 18.8696L20.5577 19.4142ZM21.5903 18.3342L21.0549 17.8224L21.5739 17.2779L22.1093 17.7897L21.5903 18.3342ZM20.6069 21.5267L20.0714 21.015L20.5904 20.4704L21.1259 20.9822L20.6069 21.5267ZM21.6376 20.4468L21.1022 19.935L21.6212 19.3905L22.1567 19.9022L21.6376 20.4468ZM21.6868 22.5575L21.1514 22.0458L21.6704 21.5012L22.2058 22.013L21.6868 22.5575ZM13.3422 26.9648L12.8067 26.453L13.3185 25.9176L13.8539 26.4294L13.3422 26.9648ZM14.3747 25.8848L13.8393 25.3731L14.3511 24.8376L14.8865 25.3494L14.3747 25.8848ZM13.3913 29.0774L12.8559 28.5656L13.3749 28.0211L13.9104 28.5328L13.3913 29.0774ZM14.4221 27.9974L13.8867 27.4856L14.3984 26.9502L14.9339 27.462L14.4221 27.9974ZM15.4547 26.9174L14.9193 26.4057L15.431 25.8703L15.9665 26.382L15.4547 26.9174ZM16.4855 25.8375L15.9501 25.3257L16.4618 24.7903L16.9973 25.302L16.4855 25.8375ZM14.4695 30.1081L13.934 29.5964L14.4531 29.0519L14.9885 29.5636L14.4695 30.1081ZM15.5021 29.0282L14.9666 28.5164L15.4784 27.981L16.0138 28.4928L15.5021 29.0282ZM16.5347 27.95L15.9993 27.4383L16.511 26.9029L17.0464 27.4146L16.5347 27.95ZM17.5655 26.8701L17.03 26.3583L17.5418 25.8229L18.0772 26.3347L17.5655 26.8701ZM15.5494 31.1408L15.014 30.629L15.533 30.0845L16.0685 30.5962L15.5494 31.1408ZM16.582 30.0608L16.0466 29.549L16.5583 29.0136L17.0938 29.5254L16.582 30.0608ZM17.6146 28.9808L17.0792 28.4691L17.591 27.9337L18.1264 28.4454L17.6146 28.9808ZM18.6454 27.9009L18.11 27.3891L18.6218 26.8537L19.1572 27.3654L18.6454 27.9009ZM22.7649 23.5901L22.2295 23.0784L22.7485 22.5338L23.284 23.0456L22.7649 23.5901ZM17.662 31.0934L17.1175 30.5744L17.6292 30.0389L18.1737 30.558L17.662 31.0934ZM19.2064 29.4762L18.6946 30.0116L18.1501 29.4926L18.6618 28.9572L19.2064 29.4762ZM21.7888 26.7736L21.2443 26.2545L21.756 25.7191L22.3005 26.2381L21.7888 26.7736ZM22.8141 25.7009L22.2696 25.1818L22.7886 24.6373L23.3332 25.1563L22.8141 25.7009ZM23.8449 24.6209L23.3004 24.1019L23.8194 23.5574L24.3639 24.0764L23.8449 24.6209ZM24.8775 23.5428L24.333 23.0237L24.852 22.4792L25.3965 22.9982L24.8775 23.5428ZM27.9735 20.3029L27.429 19.7839L27.9407 19.2484L28.4853 19.7675L27.9735 20.3029ZM29.0043 19.2229L28.4598 18.7039L28.9715 18.1685L29.5161 18.6875L29.0043 19.2229ZM30.0369 18.143L29.4924 17.6239L30.0042 17.0885L30.5487 17.6075L30.0369 18.143ZM31.0677 17.063L30.5232 16.544L31.0349 16.0085L31.5795 16.5276L31.0677 17.063ZM22.8687 27.8062L22.3242 27.2871L22.836 26.7517L23.3805 27.2707L22.8687 27.8062ZM23.8941 26.7335L23.3495 26.2145L23.8686 25.6699L24.4131 26.189L23.8941 26.7335ZM24.9249 25.6535L24.3803 25.1345L24.8994 24.59L25.4439 25.109L24.9249 25.6535ZM25.9575 24.5736L25.4129 24.0545L25.932 23.51L26.4765 24.029L25.9575 24.5736ZM26.9883 23.4936L26.4437 22.9746L26.9628 22.43L27.5073 22.9491L26.9883 23.4936ZM23.9487 28.837L23.4042 28.3179L23.9159 27.7825L24.4605 28.3015L23.9487 28.837ZM24.974 27.7661L24.4295 27.2471L24.9485 26.7025L25.4931 27.2216L24.974 27.7661ZM26.0048 26.6861L25.4603 26.1671L25.9793 25.6226L26.5239 26.1416L26.0048 26.6861ZM27.0374 25.6062L26.4929 25.0871L27.0119 24.5426L27.5565 25.0616L27.0374 25.6062Z" fill="#161616" fill-opacity="0.72"/>
<path d="M16.1505 11.0713L15.6151 10.5596L16.1268 10.0241L16.6623 10.5359L17.1813 9.99135L15.5659 8.44699L16.0776 7.91156L15.5331 7.39253L15.0214 7.92795L13.406 6.38359L12.8869 6.92813L13.4224 7.43988L12.9106 7.97531L12.3752 7.46355L12.8869 6.92813L12.3424 6.40909L10.798 8.02448L10.2626 7.51272L9.75085 8.04815L10.2863 8.5599L9.76726 9.10444L9.23182 8.59269L8.72008 9.12811L9.2555 9.63987L8.2229 10.7198L9.30285 11.7524L8.78382 12.297L9.32835 12.816L9.84738 12.2715L10.3828 12.7832L9.86377 13.3278L9.32835 12.816L8.81659 13.3514L11.5119 15.9266L12.0237 15.3912L11.4883 14.8794L12.0073 14.3349L12.5427 14.8466L12.0237 15.3912L12.5591 15.9029L13.0782 15.3584L13.6227 15.8774L14.1345 15.342L13.5899 14.823L14.109 14.2784L14.6535 14.7975L14.1345 15.342L14.6699 15.8537L17.2541 13.1511L16.7187 12.6394L16.1997 13.1839L15.6551 12.6649L16.1742 12.1203L16.7187 12.6394L17.2305 12.1039L16.6859 11.5849L17.1977 11.0495L16.6623 10.5377L16.1505 11.0731V11.0713ZM9.81644 11.2152L9.281 10.7034L9.80003 10.1589L10.3355 10.6707L9.81644 11.2152ZM10.8472 10.1352L10.3118 9.62347L10.8308 9.07894L11.3662 9.59069L10.8472 10.1352ZM11.8798 9.05527L11.3444 8.54351L11.8634 7.99898L12.3989 8.51073L11.8798 9.05527ZM10.8964 12.246L10.361 11.7342L10.88 11.1897L11.4154 11.7014L10.8964 12.246ZM11.9272 11.1678L11.3917 10.6561L11.9108 10.1116L12.4462 10.6233L11.9272 11.1678ZM12.9598 10.0879L12.4244 9.57612L12.9434 9.03159L13.4788 9.54334L12.9598 10.0879ZM13.9924 9.00792L13.457 8.49616L13.9687 7.96074L14.5042 8.47249L13.9924 9.00792ZM10.9437 14.3585L10.4083 13.8468L10.9274 13.3023L11.4628 13.814L10.9437 14.3585ZM11.9764 13.2786L11.4409 12.7668L11.9599 12.2223L12.4954 12.7341L11.9764 13.2786ZM13.0071 12.1986L12.4717 11.6869L12.9907 11.1423L13.5262 11.6541L13.0071 12.1986ZM14.0397 11.1187L13.5043 10.6069L14.0234 10.0624L14.5588 10.5741L14.0397 11.1187ZM15.0705 10.0387L14.5351 9.52695L15.0469 8.99152L15.5823 9.50328L15.0705 10.0387ZM13.0563 14.3112L12.5209 13.7994L13.0399 13.2549L13.5753 13.7667L13.0563 14.3112ZM14.0871 13.2312L13.5517 12.7195L14.0707 12.175L14.6061 12.6867L14.0871 13.2312ZM15.1197 12.1513L14.5843 11.6395L15.1033 11.095L15.6388 11.6067L15.1197 12.1513ZM15.1434 13.1985L15.6879 13.7175L15.1689 14.262L14.6243 13.743L15.1434 13.1985Z" fill="#161616" fill-opacity="0.72"/>
<path d="M20.9587 13.5991L21.4704 13.0637L22.015 13.5827L21.5032 14.1182L22.0386 14.6299L22.5504 14.0945L23.0858 14.6062L23.6049 14.0617L23.0694 13.55L23.5812 13.0145L24.1166 13.5263L24.6356 12.9817L24.1002 12.47L24.612 11.9346L25.1474 12.4463L25.6664 11.9018L25.131 11.39L25.6427 10.8546L26.1782 11.3664L26.6899 10.8309L26.1545 10.3192L26.6735 9.77464L26.1381 9.26289L25.6191 9.80742L25.0745 9.28838L25.5936 8.74385L26.1381 9.26289L26.6499 8.72746L25.0272 7.17581L25.5462 6.63128L25.0108 6.11953L24.4918 6.66406L22.8691 5.11241L22.3573 5.64784L22.9019 6.16688L22.3828 6.71141L21.8383 6.19237L22.3573 5.64784L21.8219 5.13609L21.3029 5.68062L20.7674 5.16887L20.2557 5.7043L20.7911 6.21605L20.2794 6.75148L19.7439 6.23972L19.2249 6.78426L19.7603 7.29601L19.2486 7.83144L18.7132 7.31968L18.1941 7.86422L18.7295 8.37597L18.2178 8.9114L17.6824 8.39965L17.1633 8.94418L17.6987 9.45593L17.187 9.99136L17.7224 10.5031L18.2342 9.96768L18.7787 10.4867L18.267 11.0221L17.7224 10.5031L17.2034 11.0476L20.986 14.6627L21.505 14.1182L20.9605 13.5991H20.9587ZM24.5664 9.82381L25.111 10.3428L24.5992 10.8783L24.0547 10.3592L24.5664 9.82381ZM23.5338 10.9038L24.0784 11.4228L23.5666 11.9582L23.0221 11.4392L23.5338 10.9038ZM22.503 11.9837L23.0476 12.5028L22.5358 13.0382L21.9913 12.5192L22.503 11.9837ZM19.2941 9.94401L18.7496 9.42497L19.2613 8.88954L19.8059 9.40858L19.2941 9.94401ZM20.3267 8.86405L19.7822 8.34501L20.2939 7.80958L20.8385 8.32862L20.3267 8.86405ZM21.3593 7.78409L20.8148 7.26505L21.3266 6.72962L21.8711 7.24866L21.3593 7.78409ZM19.3433 12.0548L18.7987 11.5357L19.3105 11.0003L19.855 11.5193L19.3433 12.0548ZM20.3741 10.9748L19.8295 10.4558L20.3413 9.92033L20.8858 10.4394L20.3741 10.9748ZM21.4067 9.89484L20.8621 9.3758L21.3739 8.84037L21.9184 9.35941L21.4067 9.89484ZM22.4375 8.81488L21.8929 8.29584L22.4047 7.76041L22.9492 8.27945L22.4375 8.81488ZM23.4628 7.74402L22.9183 7.22498L23.4373 6.68045L23.9818 7.19949L23.4628 7.74402ZM20.4233 13.0874L19.8787 12.5683L20.3905 12.0329L20.935 12.5519L20.4233 13.0874ZM21.454 12.0074L20.9095 11.4884L21.4213 10.9529L21.9658 11.472L21.454 12.0074ZM22.4866 10.9274L21.9421 10.4084L22.4539 9.87298L22.9984 10.392L22.4866 10.9274ZM23.5174 9.84749L22.9729 9.32845L23.4846 8.79302L24.0292 9.31206L23.5174 9.84749ZM24.5428 8.77481L23.9982 8.25577L24.5173 7.71124L25.0618 8.23028L24.5428 8.77481Z" fill="#161616"/>
<path d="M28.0918 10.8455L28.6291 11.3573L29.1408 10.8218L28.6054 10.3101L29.6362 9.23012L28.5562 8.19751L28.0445 8.73476L28.5799 9.24651L28.0609 9.79104L27.5254 9.27747L27.0137 9.81472L27.5491 10.3265" fill="#161616"/>
<path d="M7.45614 23.4062L7.97518 22.8617L8.51971 23.3807L8.00068 23.9252L8.53612 24.437L9.05515 23.8924L10.1351 24.9251L11.1604 23.8524L11.705 24.3714L12.224 23.8269L11.6795 23.3078L12.1912 22.7724L12.7358 23.2915L13.2548 22.7469L12.7103 22.2279L13.222 21.6925L13.7665 22.2115L14.2856 21.667L13.741 21.1479L14.2528 20.6125L13.7174 20.1007L13.2056 20.6362L12.6611 20.1171L13.1728 19.5817L13.7174 20.1007L14.2364 19.5562L12.6137 18.0046L13.1255 17.4691L12.5901 16.9574L12.0783 17.4928L10.4629 15.9484L9.94389 16.493L10.4793 17.0047L9.96756 17.5402L9.43212 17.0284L9.94389 16.493L9.39935 15.9739L8.88759 16.5094L8.35217 15.9976L7.83314 16.5422L8.36856 17.0539L7.85682 17.5893L7.32138 17.0776L6.80235 17.6221L7.33776 18.1339L6.82602 18.6693L6.29058 18.1575L5.77155 18.7021L6.30699 19.2138L5.79523 19.7493L5.25981 19.2375L4.74805 19.7729L5.28349 20.2847L4.76443 20.8292L5.30899 21.3483L5.82802 20.8037L6.36344 21.3155L5.8444 21.86L5.30899 21.3483L4.79722 21.8837L7.49258 24.4588L8.00432 23.9234L7.45979 23.4044L7.45614 23.4062ZM12.1439 20.6617L12.6884 21.1807L12.1767 21.7161L11.6321 21.1971L12.1439 20.6617ZM11.1113 21.7416L11.6558 22.2607L11.144 22.7961L10.5995 22.2771L11.1113 21.7416ZM10.0787 22.8216L10.6232 23.3406L10.1114 23.8761L9.56689 23.357L10.0787 22.8216ZM12.0947 18.5509L12.6392 19.07L12.1275 19.6054L11.583 19.0863L12.0947 18.5509ZM11.0639 19.6309L11.6084 20.1499L11.0967 20.6853L10.5522 20.1663L11.0639 19.6309ZM10.0313 20.709L10.5758 21.2281L10.0641 21.7635L9.51956 21.2444L10.0313 20.709ZM9.0005 21.789L9.54504 22.308L9.0333 22.8434L8.48876 22.3244L9.0005 21.789ZM6.87155 20.7819L6.33611 20.2701L6.84788 19.7347L7.38329 20.2464L6.87155 20.7819ZM7.90417 19.7019L7.36873 19.1902L7.88049 18.6547L8.41591 19.1665L7.90417 19.7019ZM8.93494 18.6219L8.39953 18.1102L8.91127 17.5748L9.44671 18.0865L8.93494 18.6219ZM6.9189 22.8926L6.37437 22.3736L6.89341 21.829L7.43794 22.3481L6.9189 22.8926ZM7.9515 21.8127L7.40697 21.2936L7.91873 20.7582L8.46326 21.2772L7.9515 21.8127ZM8.98412 20.7327L8.43959 20.2137L8.95135 19.6782L9.49588 20.1973L8.98412 20.7327ZM10.0149 19.6546L9.47038 19.1355L9.98212 18.6001L10.5267 19.1191L10.0149 19.6546ZM11.0475 18.5746L10.503 18.0556L11.0147 17.5201L11.5593 18.0392L11.0475 18.5746Z" fill="#161616"/>
<path d="M31.5084 13.3683L30.9963 13.9042L31.5322 14.4163L32.0443 13.8804L31.5084 13.3683Z" fill="#161616"/>
<path d="M30.4994 8.33408L31.0202 7.79137L30.4757 7.27051L30.9875 6.73508L30.452 6.22333L29.9403 6.75876L29.3957 6.23972L28.8767 6.78243L29.4194 7.30329L28.9077 7.83872L29.4431 8.35047L29.9567 7.81504L30.4994 8.33408Z" fill="#161616"/>
<path d="M10.1988 28.0921L9.66332 27.5803L10.1823 27.0358L10.7178 27.5476L11.2295 27.0121L9.0769 24.956L8.04428 26.036L7.49975 25.5169L8.01878 24.9724L7.48337 24.4607L6.96433 25.0052L6.4198 24.4862L5.90804 25.0216L6.45257 25.5406L5.93354 26.0851L5.38901 25.5661L4.87724 26.1015L5.4218 26.6206L4.90274 27.1651L4.35821 26.6461L3.84647 27.1815L4.391 27.7005L3.87924 28.236L3.33471 27.7169L2.81567 28.2615L3.36021 28.7805L2.84846 29.3159L3.38388 29.8277L3.89564 29.2923L4.44018 29.8113L3.92841 30.3467L3.38388 29.8277L2.86485 30.3722L3.40938 30.8913L2.89762 31.4267L3.43306 31.9384L3.9448 31.403L4.48935 31.922L3.97759 32.4575L4.51301 32.9692L5.02477 32.4338L5.56019 32.9455L5.04845 33.481L5.59298 34L6.10474 33.4646L6.64016 33.9763L7.15919 33.4318L6.62377 32.92L7.13551 32.3846L7.67095 32.8964L7.15919 33.4318L7.70372 33.9508L8.21548 33.4154L8.7509 33.9272L9.26996 33.3826L8.73452 32.8709L9.24628 32.3354L9.7817 32.8472L10.2935 32.3118L9.75802 31.8L10.2771 31.2555L10.8125 31.7672L11.3242 31.2318L10.7888 30.7201L11.8214 29.6401L10.7415 28.6075L11.2605 28.063L10.716 27.5439L10.1969 28.0885L10.1988 28.0921ZM4.95921 29.2686L4.41468 28.7495L4.92642 28.2141L5.47095 28.7331L4.95921 29.2686ZM5.98271 28.1959L5.43818 27.6769L5.95721 27.1323L6.50175 27.6514L5.98271 28.1959ZM7.01533 27.1159L6.47078 26.5969L6.98983 26.0524L7.53436 26.5714L7.01533 27.1159ZM5.00656 31.3793L4.46203 30.8603L4.97377 30.3249L5.5183 30.8439L5.00656 31.3793ZM6.03916 30.2994L5.49463 29.7803L6.00639 29.2449L6.55092 29.7639L6.03916 30.2994ZM7.06266 29.2285L6.51813 28.7095L7.03719 28.1649L7.58172 28.684L7.06266 29.2285ZM8.09528 28.1486L7.55075 27.6295L8.06978 27.085L8.61431 27.604L8.09528 28.1486ZM9.1279 27.0686L8.58337 26.5495L9.1024 26.005L9.64693 26.5241L9.1279 27.0686ZM6.07924 32.4047L5.5438 31.8929L6.05556 31.3575L6.59098 31.8692L6.07924 32.4047ZM7.11001 31.3247L6.5746 30.8129L7.08634 30.2775L7.62178 30.7893L7.11001 31.3247ZM8.13534 30.252L7.59992 29.7403L8.11896 29.1957L8.6544 29.7075L8.13534 30.252ZM9.16796 29.1721L8.63254 28.6603L9.15158 28.1158L9.68699 28.6275L9.16796 29.1721ZM10.2297 29.1484L10.7651 29.6601L10.2461 30.2047L9.71067 29.6929L10.2297 29.1484ZM9.19893 30.2283L9.73435 30.7401L9.21531 31.2846L8.67987 30.7729L9.19893 30.2283ZM8.16631 31.3083L8.70173 31.8201L8.18999 32.3555L7.65455 31.8437L8.16631 31.3083Z" fill="#161616"/>
<path d="M25.3258 19.8375L24.8137 20.3734L25.3496 20.8854L25.8617 20.3496L25.3258 19.8375Z" fill="#161616"/>
<path d="M3.31189 26.6701L2.7998 27.2059L3.33568 27.718L3.84777 27.1822L3.31189 26.6701Z" fill="#161616"/>
<path d="M30.4285 5.15976L30.9402 4.62434L30.4048 4.11076L29.8912 4.64801L29.3485 4.12715L28.8276 4.67169L30.4521 6.22334L30.9712 5.6788L30.4285 5.15976Z" fill="#161616"/>
<path d="M18.6805 6.26387L18.1685 6.79974L18.7122 7.31939L19.2243 6.78352L18.6805 6.26387Z" fill="#161616"/>
<path d="M4.34509 25.5884L3.82544 26.1321L4.36132 26.6442L4.88096 26.1005L4.34509 25.5884Z" fill="#161616"/>
<path d="M30.4048 4.11077L30.9238 3.56805L30.3793 3.0472L30.8929 2.51177L30.3556 2.00002L29.8439 2.53544L29.2993 2.01641L28.7803 2.55912L29.3248 3.07998L28.8112 3.6154L29.3485 4.12716L29.8602 3.59173L30.4048 4.11077Z" fill="#161616"/>
<path d="M6.25721 17.1027L5.74512 17.6386L6.2889 18.1582L6.80099 17.6223L6.25721 17.1027Z" fill="#161616"/>
</svg>
