<svg width="64" height="64" viewBox="0 0 64 64" fill="none" xmlns="http://www.w3.org/2000/svg">
<g clip-path="url(#clip0_61_2223)">
<rect width="64" height="64" rx="16" fill="#1D6026"/>
<path d="M30.1243 23.069C30.7686 21.3278 33.2314 21.3278 33.8757 23.069L35.4621 27.3562C35.6647 27.9037 36.0963 28.3353 36.6438 28.5379L40.931 30.1243C42.6722 30.7686 42.6722 33.2314 40.931 33.8757L36.6438 35.4621C36.0963 35.6647 35.6647 36.0963 35.4621 36.6438L33.8757 40.931C33.2314 42.6722 30.7686 42.6722 30.1243 40.931L28.5379 36.6438C28.3353 36.0963 27.9037 35.6647 27.3562 35.4621L23.069 33.8757C21.3278 33.2314 21.3278 30.7686 23.069 30.1243L27.3562 28.5379C27.9037 28.3353 28.3353 27.9037 28.5379 27.3562L30.1243 23.069Z" fill="#C1FF9F"/>
</g>
<defs>
<clipPath id="clip0_61_2223">
<rect width="64" height="64" fill="white"/>
</clipPath>
</defs>
</svg>
