<svg width="64" height="64" viewBox="0 0 64 64" fill="none" xmlns="http://www.w3.org/2000/svg">
<g clip-path="url(#clip0_61_2230)">
<rect width="64" height="64" rx="16" fill="#115879"/>
<path d="M19.2583 23.7069C19.8566 22.0901 22.1434 22.0901 22.7417 23.7069L24.2148 27.6879C24.4029 28.1963 24.8037 28.5971 25.3121 28.7852L29.2931 30.2583C30.9099 30.8566 30.9099 33.1434 29.2931 33.7417L25.3121 35.2148C24.8037 35.4029 24.4029 35.8037 24.2148 36.3121L22.7417 40.2931C22.1434 41.9099 19.8566 41.9099 19.2583 40.2931L17.7852 36.3121C17.5971 35.8037 17.1963 35.4029 16.6879 35.2148L12.7069 33.7417C11.0901 33.1434 11.0901 30.8566 12.7069 30.2583L16.6879 28.7852C17.1963 28.5971 17.5971 28.1963 17.7852 27.6879L19.2583 23.7069Z" fill="#B4E6FD"/>
<path d="M41.5434 23.7069C42.1417 22.0901 44.4286 22.0901 45.0269 23.7069L46.5 27.6879C46.6881 28.1963 47.0889 28.5971 47.5972 28.7852L51.5782 30.2583C53.1951 30.8566 53.1951 33.1434 51.5782 33.7417L47.5972 35.2148C47.0889 35.4029 46.6881 35.8037 46.5 36.3121L45.0269 40.2931C44.4286 41.9099 42.1417 41.9099 41.5434 40.2931L40.0703 36.3121C39.8822 35.8037 39.4814 35.4029 38.9731 35.2148L34.9921 33.7417C33.3752 33.1434 33.3752 30.8566 34.9921 30.2583L38.9731 28.7852C39.4814 28.5971 39.8822 28.1963 40.0703 27.6879L41.5434 23.7069Z" fill="#B4E6FD"/>
</g>
<defs>
<clipPath id="clip0_61_2230">
<rect width="64" height="64" fill="white"/>
</clipPath>
</defs>
</svg>
