<svg width="64" height="64" viewBox="0 0 64 64" fill="none" xmlns="http://www.w3.org/2000/svg">
<g clip-path="url(#clip0_61_2239)">
<rect width="64" height="64" rx="16" fill="#53196C"/>
<path d="M18.8022 29.9796C19.4005 28.3628 21.6874 28.3628 22.2857 29.9796L23.7588 33.9606C23.9469 34.469 24.3477 34.8698 24.856 35.0579L28.837 36.531C30.4539 37.1293 30.4539 39.4161 28.837 40.0144L24.856 41.4875C24.3477 41.6756 23.9469 42.0764 23.7588 42.5848L22.2857 46.5658C21.6874 48.1826 19.4005 48.1826 18.8022 46.5658L17.3291 42.5848C17.141 42.0764 16.7402 41.6756 16.2319 41.4875L12.2509 40.0144C10.634 39.4161 10.634 37.1293 12.2509 36.531L16.2319 35.0579C16.7402 34.8698 17.141 34.469 17.3291 33.9606L18.8022 29.9796Z" fill="#EBBEFF"/>
<path d="M41.7124 29.9796C42.3107 28.3628 44.5975 28.3628 45.1958 29.9796L46.6689 33.9606C46.857 34.469 47.2578 34.8698 47.7662 35.0579L51.7472 36.531C53.364 37.1293 53.364 39.4161 51.7472 40.0144L47.7662 41.4875C47.2578 41.6756 46.857 42.0764 46.6689 42.5848L45.1958 46.5658C44.5975 48.1826 42.3107 48.1826 41.7124 46.5658L40.2393 42.5848C40.0512 42.0764 39.6504 41.6756 39.142 41.4875L35.161 40.0144C33.5442 39.4161 33.5442 37.1293 35.161 36.531L39.142 35.0579C39.6504 34.8698 40.0512 34.469 40.2393 33.9606L41.7124 29.9796Z" fill="#EBBEFF"/>
<path d="M30.2583 14.7069C30.8566 13.0901 33.1434 13.0901 33.7417 14.7069L35.2148 18.6879C35.4029 19.1963 35.8037 19.5971 36.3121 19.7852L40.2931 21.2583C41.9099 21.8566 41.9099 24.1434 40.2931 24.7417L36.3121 26.2148C35.8037 26.4029 35.4029 26.8037 35.2148 27.3121L33.7417 31.2931C33.1434 32.9099 30.8566 32.9099 30.2583 31.2931L28.7852 27.3121C28.5971 26.8037 28.1963 26.4029 27.6879 26.2148L23.7069 24.7417C22.0901 24.1434 22.0901 21.8566 23.7069 21.2583L27.6879 19.7852C28.1963 19.5971 28.5971 19.1963 28.7852 18.6879L30.2583 14.7069Z" fill="#EBBEFF"/>
</g>
<defs>
<clipPath id="clip0_61_2239">
<rect width="64" height="64" fill="white"/>
</clipPath>
</defs>
</svg>
