<svg width="20" height="20" viewBox="0 0 20 20" fill="none" xmlns="http://www.w3.org/2000/svg">
<g clip-path="url(#clip0_52_10064)">
<path d="M9.9425 2C5.8805 2 6.134 3.7615 6.134 3.7615L6.139 5.5865H10.015V6.134H4.5985C4.5985 6.134 2 5.839 2 9.938C2 14.036 4.2685 13.891 4.2685 13.891H5.6225V11.989C5.6225 11.989 5.5495 9.7205 7.855 9.7205H11.699C11.699 9.7205 13.859 9.7555 13.859 7.633V4.1235C13.859 4.1235 14.187 2 9.9425 2ZM7.805 3.227C7.98999 3.227 8.1674 3.30049 8.29821 3.43129C8.42901 3.5621 8.5025 3.73951 8.5025 3.9245C8.5025 4.10949 8.42901 4.2869 8.29821 4.41771C8.1674 4.54851 7.98999 4.622 7.805 4.622C7.71337 4.62213 7.62261 4.60418 7.53792 4.56917C7.45324 4.53417 7.37629 4.4828 7.3115 4.418C7.2467 4.35321 7.19533 4.27626 7.16033 4.19158C7.12532 4.10689 7.10737 4.01613 7.1075 3.9245C7.1075 3.539 7.4195 3.227 7.805 3.227Z" fill="#F5F5F5"/>
<path d="M10.0576 17.9165C14.1196 17.9165 13.8661 16.155 13.8661 16.155L13.8611 14.33H9.98513V13.7825H15.4011C15.4011 13.7825 18.0001 14.0775 18.0001 9.979C18.0001 5.8805 15.7316 6.026 15.7316 6.026H14.3776V7.9275C14.3776 7.9275 14.4506 10.196 12.1451 10.196H8.30113C8.30113 10.196 6.14113 10.161 6.14113 12.2835V15.793C6.14113 15.793 5.81313 17.9165 10.0576 17.9165ZM12.1951 16.6895C12.1035 16.6896 12.0127 16.6717 11.9281 16.6367C11.8434 16.6017 11.7664 16.5503 11.7016 16.4855C11.6368 16.4207 11.5855 16.3438 11.5505 16.2591C11.5155 16.1744 11.4975 16.0836 11.4976 15.992C11.4977 15.8542 11.5387 15.7195 11.6153 15.605C11.6919 15.4904 11.8008 15.4012 11.9281 15.3485C12.0555 15.2958 12.1956 15.282 12.3307 15.3089C12.4659 15.3358 12.59 15.4022 12.6875 15.4996C12.7849 15.5971 12.8513 15.7212 12.8782 15.8564C12.9051 15.9916 12.8914 16.1317 12.8387 16.259C12.786 16.3863 12.6967 16.4952 12.5822 16.5718C12.4676 16.6485 12.3329 16.6894 12.1951 16.6895Z" fill="#F5F5F5"/>
</g>
<defs>
<clipPath id="clip0_52_10064">
<rect width="16" height="16" fill="white" transform="translate(2 2)"/>
</clipPath>
</defs>
</svg>
