<svg width="20" height="20" viewBox="0 0 20 20" fill="none" xmlns="http://www.w3.org/2000/svg">
<g clip-path="url(#clip0_52_10112)">
<path d="M3.3335 3C3.3335 2.44772 3.78121 2 4.3335 2H9.00016C9.55245 2 10.0002 2.44772 10.0002 3V7.33333H4.3335C3.78121 7.33333 3.3335 6.88562 3.3335 6.33333V3Z" fill="#F5F5F5" fill-opacity="0.72"/>
<path d="M10 7.33331H15.6667C16.2189 7.33331 16.6667 7.78103 16.6667 8.33331V11.6666C16.6667 12.2189 16.2189 12.6666 15.6667 12.6666H10V7.33331Z" fill="#F5F5F5" fill-opacity="0.72"/>
<path d="M3.3335 13.6667C3.3335 13.1144 3.78121 12.6667 4.3335 12.6667H10.0002V17C10.0002 17.5523 9.55245 18 9.00016 18H4.3335C3.78121 18 3.3335 17.5523 3.3335 17V13.6667Z" fill="#F5F5F5" fill-opacity="0.72"/>
</g>
<defs>
<clipPath id="clip0_52_10112">
<rect width="13.3333" height="16" fill="white" transform="translate(3.3335 2)"/>
</clipPath>
</defs>
</svg>
