<svg width="20" height="20" viewBox="0 0 20 20" fill="none" xmlns="http://www.w3.org/2000/svg">
<path d="M11.8579 3C18.8909 7.78311 16.616 13.0579 16.616 13.0579C16.616 13.0579 18.6159 15.3161 17.8076 17.291C17.8076 17.291 16.9826 15.9077 15.5994 15.9077C14.2661 15.9077 13.4828 17.291 10.7996 17.291C4.82487 17.291 2 12.2996 2 12.2996C7.38308 15.8411 11.0579 13.3329 11.0579 13.3329C8.63302 11.9246 3.47493 5.19156 3.47493 5.19156C7.96639 9.01639 9.90796 10.0247 9.90796 10.0247C8.74969 9.06638 5.49984 4.38327 5.49984 4.38327C8.09972 7.01648 13.2661 10.6913 13.2661 10.6913C14.7327 6.62483 11.8579 3 11.8579 3Z" fill="#F5F5F5" fill-opacity="0.72"/>
</svg>
